<mxfile host="Electron" modified="2023-12-21T17:47:07.694Z" agent="Mozilla/5.0 (Windows NT 10.0; Win64; x64) AppleWebKit/537.36 (KHTML, like Gecko) draw.io/22.0.3 Chrome/114.0.5735.289 Electron/25.8.4 Safari/537.36" etag="IjdY8G_I2t8S7pi7OwL-" version="22.0.3" type="device">
  <diagram name="Page-1" id="5f0bae14-7c28-e335-631c-24af17079c00">
    <mxGraphModel dx="2743" dy="1938" grid="1" gridSize="10" guides="1" tooltips="1" connect="1" arrows="1" fold="1" page="1" pageScale="1" pageWidth="1100" pageHeight="850" background="none" math="0" shadow="0">
      <root>
        <mxCell id="0" />
        <mxCell id="1" parent="0" />
        <mxCell id="mmdkQ3DgxTQABvhwrMoQ-8" value="User" style="shape=umlActor;verticalLabelPosition=bottom;verticalAlign=top;html=1;outlineConnect=0;" parent="1" vertex="1">
          <mxGeometry x="660" y="-492" width="30" height="60" as="geometry" />
        </mxCell>
        <mxCell id="mmdkQ3DgxTQABvhwrMoQ-22" value="Application&amp;amp;Integration" style="shape=umlFrame;whiteSpace=wrap;html=1;pointerEvents=0;recursiveResize=0;container=1;collapsible=0;width=160;" parent="1" vertex="1">
          <mxGeometry x="60" y="-380" width="1490" height="820" as="geometry" />
        </mxCell>
        <mxCell id="mmdkQ3DgxTQABvhwrMoQ-7" value="APIGatewayService" style="shape=component;align=left;spacingLeft=36;rounded=0;shadow=0;comic=0;labelBackgroundColor=none;strokeWidth=1;fontFamily=Verdana;fontSize=12;html=1;fillColor=#ffe6cc;strokeColor=#d79b00;" parent="mmdkQ3DgxTQABvhwrMoQ-22" vertex="1">
          <mxGeometry x="745" y="50" width="170" height="60" as="geometry" />
        </mxCell>
        <mxCell id="mmdkQ3DgxTQABvhwrMoQ-5" value="GitHubIntegrationService" style="shape=component;align=left;spacingLeft=36;rounded=0;shadow=0;comic=0;labelBackgroundColor=none;strokeWidth=1;fontFamily=Verdana;fontSize=12;html=1;fillColor=#ffe6cc;strokeColor=#d79b00;" parent="mmdkQ3DgxTQABvhwrMoQ-22" vertex="1">
          <mxGeometry x="367" y="490" width="200" height="60" as="geometry" />
        </mxCell>
        <mxCell id="mmdkQ3DgxTQABvhwrMoQ-54" value="" style="ellipse;whiteSpace=wrap;html=1;align=center;aspect=fixed;fillColor=none;strokeColor=none;resizable=0;perimeter=centerPerimeter;rotatable=0;allowArrows=0;points=[];outlineConnect=1;" parent="mmdkQ3DgxTQABvhwrMoQ-22" vertex="1">
          <mxGeometry x="1310" y="490" width="10" height="10" as="geometry" />
        </mxCell>
        <mxCell id="ubvg3rel_VxKxt8CuiRT-38" value="" style="ellipse;whiteSpace=wrap;html=1;align=center;aspect=fixed;fillColor=none;strokeColor=none;resizable=0;perimeter=centerPerimeter;rotatable=0;allowArrows=0;points=[];outlineConnect=1;" parent="mmdkQ3DgxTQABvhwrMoQ-22" vertex="1">
          <mxGeometry x="1400" y="808" width="10" height="10" as="geometry" />
        </mxCell>
        <mxCell id="ubvg3rel_VxKxt8CuiRT-41" value="" style="ellipse;whiteSpace=wrap;html=1;align=center;aspect=fixed;fillColor=none;strokeColor=none;resizable=0;perimeter=centerPerimeter;rotatable=0;allowArrows=0;points=[];outlineConnect=1;" parent="mmdkQ3DgxTQABvhwrMoQ-22" vertex="1">
          <mxGeometry x="1400" y="798" width="10" height="10" as="geometry" />
        </mxCell>
        <mxCell id="ubvg3rel_VxKxt8CuiRT-51" value="" style="html=1;rounded=0;" parent="mmdkQ3DgxTQABvhwrMoQ-22" vertex="1">
          <mxGeometry x="1330" y="-10" width="20" height="20" as="geometry" />
        </mxCell>
        <mxCell id="mmdkQ3DgxTQABvhwrMoQ-55" value="" style="html=1;rounded=0;" parent="mmdkQ3DgxTQABvhwrMoQ-22" vertex="1">
          <mxGeometry x="819.9999999999999" y="-10" width="20" height="20" as="geometry" />
        </mxCell>
        <mxCell id="ubvg3rel_VxKxt8CuiRT-24" value="" style="html=1;rounded=0;" parent="mmdkQ3DgxTQABvhwrMoQ-22" vertex="1">
          <mxGeometry x="-10" y="730" width="20" height="20" as="geometry" />
        </mxCell>
        <mxCell id="ubvg3rel_VxKxt8CuiRT-14" value="" style="endArrow=none;html=1;rounded=0;exitX=1;exitY=0.5;exitDx=0;exitDy=0;entryX=0.109;entryY=0.488;entryDx=0;entryDy=0;entryPerimeter=0;" parent="mmdkQ3DgxTQABvhwrMoQ-22" source="ubvg3rel_VxKxt8CuiRT-24" target="QgpUw27OPvmrAmyyEHpP-2" edge="1">
          <mxGeometry width="50" height="50" relative="1" as="geometry">
            <mxPoint x="1200" y="652" as="sourcePoint" />
            <mxPoint x="123.99999999999977" y="741" as="targetPoint" />
          </mxGeometry>
        </mxCell>
        <mxCell id="mmdkQ3DgxTQABvhwrMoQ-44" value="TournamentService" style="shape=umlFrame;whiteSpace=wrap;html=1;pointerEvents=0;recursiveResize=0;container=1;collapsible=0;width=160;fillColor=#ffe6cc;strokeColor=#d79b00;" parent="mmdkQ3DgxTQABvhwrMoQ-22" vertex="1">
          <mxGeometry x="62.5" y="110" width="570" height="250" as="geometry" />
        </mxCell>
        <mxCell id="39150e848f15840c-7" value="TournamentManager" style="shape=component;align=left;spacingLeft=36;rounded=0;shadow=0;comic=0;labelBackgroundColor=none;strokeWidth=1;fontFamily=Verdana;fontSize=12;html=1;" parent="mmdkQ3DgxTQABvhwrMoQ-44" vertex="1">
          <mxGeometry x="30" y="45" width="180" height="60" as="geometry" />
        </mxCell>
        <mxCell id="ubvg3rel_VxKxt8CuiRT-65" value="" style="ellipse;whiteSpace=wrap;html=1;align=center;aspect=fixed;fillColor=none;strokeColor=none;resizable=0;perimeter=centerPerimeter;rotatable=0;allowArrows=0;points=[];outlineConnect=1;" parent="mmdkQ3DgxTQABvhwrMoQ-44" vertex="1">
          <mxGeometry x="275" y="45" width="10" height="10" as="geometry" />
        </mxCell>
        <mxCell id="ubvg3rel_VxKxt8CuiRT-68" value="" style="ellipse;whiteSpace=wrap;html=1;align=center;aspect=fixed;fillColor=none;strokeColor=none;resizable=0;perimeter=centerPerimeter;rotatable=0;allowArrows=0;points=[];outlineConnect=1;" parent="mmdkQ3DgxTQABvhwrMoQ-44" vertex="1">
          <mxGeometry x="255" y="79" width="10" height="10" as="geometry" />
        </mxCell>
        <mxCell id="mmdkQ3DgxTQABvhwrMoQ-105" value="" style="html=1;rounded=0;" parent="mmdkQ3DgxTQABvhwrMoQ-44" vertex="1">
          <mxGeometry x="110" y="240" width="20" height="20" as="geometry" />
        </mxCell>
        <mxCell id="mmdkQ3DgxTQABvhwrMoQ-106" value="" style="endArrow=none;html=1;rounded=0;exitX=0.5;exitY=0;exitDx=0;exitDy=0;entryX=0.5;entryY=1;entryDx=0;entryDy=0;" parent="mmdkQ3DgxTQABvhwrMoQ-44" source="mmdkQ3DgxTQABvhwrMoQ-105" target="39150e848f15840c-7" edge="1">
          <mxGeometry width="50" height="50" relative="1" as="geometry">
            <mxPoint x="90" y="140" as="sourcePoint" />
            <mxPoint x="-25" y="65" as="targetPoint" />
          </mxGeometry>
        </mxCell>
        <mxCell id="ubvg3rel_VxKxt8CuiRT-81" value="EventManager" style="shape=component;align=left;spacingLeft=36;rounded=0;shadow=0;comic=0;labelBackgroundColor=none;strokeWidth=1;fontFamily=Verdana;fontSize=12;html=1;" parent="mmdkQ3DgxTQABvhwrMoQ-44" vertex="1">
          <mxGeometry x="240" y="148" width="130" height="60" as="geometry" />
        </mxCell>
        <mxCell id="ubvg3rel_VxKxt8CuiRT-86" value="" style="ellipse;whiteSpace=wrap;html=1;align=center;aspect=fixed;fillColor=none;strokeColor=none;resizable=0;perimeter=centerPerimeter;rotatable=0;allowArrows=0;points=[];outlineConnect=1;" parent="mmdkQ3DgxTQABvhwrMoQ-44" vertex="1">
          <mxGeometry x="150" y="183" width="10" height="10" as="geometry" />
        </mxCell>
        <mxCell id="ubvg3rel_VxKxt8CuiRT-89" value="" style="ellipse;whiteSpace=wrap;html=1;align=center;aspect=fixed;fillColor=none;strokeColor=none;resizable=0;perimeter=centerPerimeter;rotatable=0;allowArrows=0;points=[];outlineConnect=1;" parent="mmdkQ3DgxTQABvhwrMoQ-44" vertex="1">
          <mxGeometry x="355" y="205" width="10" height="10" as="geometry" />
        </mxCell>
        <mxCell id="ubvg3rel_VxKxt8CuiRT-93" value="" style="ellipse;whiteSpace=wrap;html=1;align=center;aspect=fixed;fillColor=none;strokeColor=none;resizable=0;perimeter=centerPerimeter;rotatable=0;allowArrows=0;points=[];outlineConnect=1;" parent="mmdkQ3DgxTQABvhwrMoQ-44" vertex="1">
          <mxGeometry x="345" y="126" width="10" height="10" as="geometry" />
        </mxCell>
        <mxCell id="4cuxGvbS_4BrSIJYP33n-103" value="" style="html=1;rounded=0;" parent="mmdkQ3DgxTQABvhwrMoQ-44" vertex="1">
          <mxGeometry x="557.4999999999999" y="51" width="20" height="20" as="geometry" />
        </mxCell>
        <mxCell id="4cuxGvbS_4BrSIJYP33n-108" value="" style="ellipse;whiteSpace=wrap;html=1;align=center;aspect=fixed;fillColor=none;strokeColor=none;resizable=0;perimeter=centerPerimeter;rotatable=0;allowArrows=0;points=[];outlineConnect=1;" parent="mmdkQ3DgxTQABvhwrMoQ-44" vertex="1">
          <mxGeometry x="380" y="56" width="10" height="10" as="geometry" />
        </mxCell>
        <mxCell id="hIF5-wNlFr5nMB-mbWGY-1" value="TournamentModel" style="shape=component;align=left;spacingLeft=36;rounded=0;shadow=0;comic=0;labelBackgroundColor=none;strokeWidth=1;fontFamily=Verdana;fontSize=12;html=1;fillColor=#fff2cc;strokeColor=#d6b656;" parent="mmdkQ3DgxTQABvhwrMoQ-44" vertex="1">
          <mxGeometry x="327.5" y="45" width="152.5" height="60" as="geometry" />
        </mxCell>
        <mxCell id="hIF5-wNlFr5nMB-mbWGY-2" value="" style="rounded=0;orthogonalLoop=1;jettySize=auto;html=1;endArrow=halfCircle;endFill=0;endSize=6;strokeWidth=1;sketch=0;exitX=0.998;exitY=0.27;exitDx=0;exitDy=0;exitPerimeter=0;" parent="mmdkQ3DgxTQABvhwrMoQ-44" source="39150e848f15840c-7" target="hIF5-wNlFr5nMB-mbWGY-4" edge="1">
          <mxGeometry relative="1" as="geometry">
            <mxPoint x="209.46000000000004" y="60.57999999999993" as="sourcePoint" />
          </mxGeometry>
        </mxCell>
        <mxCell id="hIF5-wNlFr5nMB-mbWGY-3" value="" style="rounded=0;orthogonalLoop=1;jettySize=auto;html=1;endArrow=oval;endFill=0;sketch=0;sourcePerimeterSpacing=0;targetPerimeterSpacing=0;endSize=10;" parent="mmdkQ3DgxTQABvhwrMoQ-44" edge="1">
          <mxGeometry relative="1" as="geometry">
            <mxPoint x="327" y="60.88" as="sourcePoint" />
            <mxPoint x="265" y="60.88" as="targetPoint" />
          </mxGeometry>
        </mxCell>
        <mxCell id="hIF5-wNlFr5nMB-mbWGY-4" value="" style="ellipse;whiteSpace=wrap;html=1;align=center;aspect=fixed;fillColor=none;strokeColor=none;resizable=0;perimeter=centerPerimeter;rotatable=0;allowArrows=0;points=[];outlineConnect=1;" parent="mmdkQ3DgxTQABvhwrMoQ-44" vertex="1">
          <mxGeometry x="260.5" y="56" width="10" height="10" as="geometry" />
        </mxCell>
        <mxCell id="x6KYfn-9t4zsdUamP-vX-26" value="TournamentModelI" style="text;html=1;align=center;verticalAlign=middle;resizable=0;points=[];autosize=1;strokeColor=none;fillColor=none;" parent="mmdkQ3DgxTQABvhwrMoQ-44" vertex="1">
          <mxGeometry x="207.5" y="21" width="120" height="30" as="geometry" />
        </mxCell>
        <mxCell id="x6KYfn-9t4zsdUamP-vX-29" value="Tournament2EventI" style="text;html=1;align=center;verticalAlign=middle;resizable=0;points=[];autosize=1;strokeColor=none;fillColor=none;" parent="mmdkQ3DgxTQABvhwrMoQ-44" vertex="1">
          <mxGeometry x="265.5" y="103" width="130" height="30" as="geometry" />
        </mxCell>
        <mxCell id="QgpUw27OPvmrAmyyEHpP-7" value="" style="rounded=0;orthogonalLoop=1;jettySize=auto;html=1;endArrow=halfCircle;endFill=0;endSize=6;strokeWidth=1;sketch=0;exitX=0.5;exitY=0;exitDx=0;exitDy=0;" parent="mmdkQ3DgxTQABvhwrMoQ-44" source="ubvg3rel_VxKxt8CuiRT-81" target="QgpUw27OPvmrAmyyEHpP-9" edge="1">
          <mxGeometry relative="1" as="geometry">
            <mxPoint x="280.5" y="118" as="sourcePoint" />
          </mxGeometry>
        </mxCell>
        <mxCell id="QgpUw27OPvmrAmyyEHpP-8" value="" style="rounded=0;orthogonalLoop=1;jettySize=auto;html=1;endArrow=oval;endFill=0;sketch=0;sourcePerimeterSpacing=0;targetPerimeterSpacing=0;endSize=10;exitX=1.003;exitY=1.006;exitDx=0;exitDy=0;exitPerimeter=0;" parent="mmdkQ3DgxTQABvhwrMoQ-44" source="39150e848f15840c-7" target="QgpUw27OPvmrAmyyEHpP-9" edge="1">
          <mxGeometry relative="1" as="geometry">
            <mxPoint x="240.5" y="118" as="sourcePoint" />
          </mxGeometry>
        </mxCell>
        <mxCell id="QgpUw27OPvmrAmyyEHpP-9" value="" style="ellipse;whiteSpace=wrap;html=1;align=center;aspect=fixed;fillColor=none;strokeColor=none;resizable=0;perimeter=centerPerimeter;rotatable=0;allowArrows=0;points=[];outlineConnect=1;" parent="mmdkQ3DgxTQABvhwrMoQ-44" vertex="1">
          <mxGeometry x="255.5" y="113" width="10" height="10" as="geometry" />
        </mxCell>
        <mxCell id="ubvg3rel_VxKxt8CuiRT-71" value="" style="ellipse;whiteSpace=wrap;html=1;align=center;aspect=fixed;fillColor=none;strokeColor=none;resizable=0;perimeter=centerPerimeter;rotatable=0;allowArrows=0;points=[];outlineConnect=1;" parent="mmdkQ3DgxTQABvhwrMoQ-22" vertex="1">
          <mxGeometry x="627.5" y="253" width="10" height="10" as="geometry" />
        </mxCell>
        <mxCell id="ubvg3rel_VxKxt8CuiRT-97" value="" style="ellipse;whiteSpace=wrap;html=1;align=center;aspect=fixed;fillColor=none;strokeColor=none;resizable=0;perimeter=centerPerimeter;rotatable=0;allowArrows=0;points=[];outlineConnect=1;" parent="mmdkQ3DgxTQABvhwrMoQ-22" vertex="1">
          <mxGeometry x="502.5" y="401" width="10" height="10" as="geometry" />
        </mxCell>
        <mxCell id="ubvg3rel_VxKxt8CuiRT-94" value="" style="html=1;rounded=0;" parent="mmdkQ3DgxTQABvhwrMoQ-22" vertex="1">
          <mxGeometry x="533.5" y="349" width="20" height="20" as="geometry" />
        </mxCell>
        <mxCell id="ubvg3rel_VxKxt8CuiRT-105" value="" style="endArrow=none;html=1;rounded=0;exitX=0.5;exitY=0;exitDx=0;exitDy=0;entryX=1.002;entryY=0.984;entryDx=0;entryDy=0;entryPerimeter=0;" parent="mmdkQ3DgxTQABvhwrMoQ-22" source="ubvg3rel_VxKxt8CuiRT-94" target="ubvg3rel_VxKxt8CuiRT-81" edge="1">
          <mxGeometry width="50" height="50" relative="1" as="geometry">
            <mxPoint x="543.5" y="376" as="sourcePoint" />
            <mxPoint x="430" y="320" as="targetPoint" />
          </mxGeometry>
        </mxCell>
        <mxCell id="ubvg3rel_VxKxt8CuiRT-132" value="" style="html=1;rounded=0;" parent="mmdkQ3DgxTQABvhwrMoQ-22" vertex="1">
          <mxGeometry x="622.5" y="324" width="20" height="20" as="geometry" />
        </mxCell>
        <mxCell id="ubvg3rel_VxKxt8CuiRT-134" value="" style="endArrow=none;html=1;rounded=0;exitX=0;exitY=0.5;exitDx=0;exitDy=0;entryX=1;entryY=0.75;entryDx=0;entryDy=0;" parent="mmdkQ3DgxTQABvhwrMoQ-22" source="ubvg3rel_VxKxt8CuiRT-132" target="ubvg3rel_VxKxt8CuiRT-81" edge="1">
          <mxGeometry width="50" height="50" relative="1" as="geometry">
            <mxPoint x="592.5" y="366" as="sourcePoint" />
            <mxPoint x="535.5" y="365" as="targetPoint" />
          </mxGeometry>
        </mxCell>
        <mxCell id="ubvg3rel_VxKxt8CuiRT-47" value="" style="rounded=0;orthogonalLoop=1;jettySize=auto;html=1;endArrow=halfCircle;endFill=0;endSize=6;strokeWidth=1;sketch=0;exitX=0.097;exitY=0.497;exitDx=0;exitDy=0;exitPerimeter=0;" parent="mmdkQ3DgxTQABvhwrMoQ-22" source="QgpUw27OPvmrAmyyEHpP-1" target="ubvg3rel_VxKxt8CuiRT-49" edge="1">
          <mxGeometry relative="1" as="geometry">
            <mxPoint x="1240" y="710" as="sourcePoint" />
          </mxGeometry>
        </mxCell>
        <mxCell id="ubvg3rel_VxKxt8CuiRT-48" value="" style="rounded=0;orthogonalLoop=1;jettySize=auto;html=1;endArrow=oval;endFill=0;sketch=0;sourcePerimeterSpacing=0;targetPerimeterSpacing=0;endSize=10;exitX=1;exitY=0.5;exitDx=0;exitDy=0;" parent="mmdkQ3DgxTQABvhwrMoQ-22" source="mmdkQ3DgxTQABvhwrMoQ-47" target="ubvg3rel_VxKxt8CuiRT-49" edge="1">
          <mxGeometry relative="1" as="geometry">
            <mxPoint x="1055" y="1013" as="sourcePoint" />
          </mxGeometry>
        </mxCell>
        <mxCell id="ubvg3rel_VxKxt8CuiRT-49" value="" style="ellipse;whiteSpace=wrap;html=1;align=center;aspect=fixed;fillColor=none;strokeColor=none;resizable=0;perimeter=centerPerimeter;rotatable=0;allowArrows=0;points=[];outlineConnect=1;" parent="mmdkQ3DgxTQABvhwrMoQ-22" vertex="1">
          <mxGeometry x="1160" y="706" width="10" height="10" as="geometry" />
        </mxCell>
        <mxCell id="mmdkQ3DgxTQABvhwrMoQ-97" value="" style="ellipse;whiteSpace=wrap;html=1;align=center;aspect=fixed;fillColor=none;strokeColor=none;resizable=0;perimeter=centerPerimeter;rotatable=0;allowArrows=0;points=[];outlineConnect=1;" parent="mmdkQ3DgxTQABvhwrMoQ-22" vertex="1">
          <mxGeometry x="730" y="849" width="10" height="10" as="geometry" />
        </mxCell>
        <mxCell id="4cuxGvbS_4BrSIJYP33n-131" value="" style="endArrow=none;html=1;rounded=0;exitX=0.5;exitY=1;exitDx=0;exitDy=0;entryX=0.5;entryY=0;entryDx=0;entryDy=0;" parent="mmdkQ3DgxTQABvhwrMoQ-22" source="mmdkQ3DgxTQABvhwrMoQ-55" target="mmdkQ3DgxTQABvhwrMoQ-7" edge="1">
          <mxGeometry width="50" height="50" relative="1" as="geometry">
            <mxPoint x="1050" y="250" as="sourcePoint" />
            <mxPoint x="1100" y="200" as="targetPoint" />
          </mxGeometry>
        </mxCell>
        <mxCell id="4cuxGvbS_4BrSIJYP33n-134" value="" style="ellipse;whiteSpace=wrap;html=1;align=center;aspect=fixed;fillColor=none;strokeColor=none;resizable=0;perimeter=centerPerimeter;rotatable=0;allowArrows=0;points=[];outlineConnect=1;" parent="mmdkQ3DgxTQABvhwrMoQ-22" vertex="1">
          <mxGeometry x="1360" y="75" width="10" height="10" as="geometry" />
        </mxCell>
        <mxCell id="mmdkQ3DgxTQABvhwrMoQ-69" value="" style="html=1;rounded=0;" parent="mmdkQ3DgxTQABvhwrMoQ-22" vertex="1">
          <mxGeometry x="240" y="100" width="20" height="20" as="geometry" />
        </mxCell>
        <mxCell id="mmdkQ3DgxTQABvhwrMoQ-70" value="" style="endArrow=none;html=1;rounded=0;exitX=0.5;exitY=1;exitDx=0;exitDy=0;entryX=0.875;entryY=0.022;entryDx=0;entryDy=0;entryPerimeter=0;" parent="mmdkQ3DgxTQABvhwrMoQ-22" source="mmdkQ3DgxTQABvhwrMoQ-69" target="39150e848f15840c-7" edge="1">
          <mxGeometry width="50" height="50" relative="1" as="geometry">
            <mxPoint x="92.5" y="235" as="sourcePoint" />
            <mxPoint x="119.5" y="185" as="targetPoint" />
          </mxGeometry>
        </mxCell>
        <mxCell id="4cuxGvbS_4BrSIJYP33n-102" value="ServiceRegistry" style="shape=component;align=left;spacingLeft=36;rounded=0;shadow=0;comic=0;labelBackgroundColor=none;strokeWidth=1;fontFamily=Verdana;fontSize=12;html=1;fillColor=#E1D5E7;strokeColor=#9673A6;" parent="mmdkQ3DgxTQABvhwrMoQ-22" vertex="1">
          <mxGeometry x="810" y="490" width="170" height="60" as="geometry" />
        </mxCell>
        <mxCell id="4cuxGvbS_4BrSIJYP33n-140" value="" style="ellipse;whiteSpace=wrap;html=1;align=center;aspect=fixed;fillColor=none;strokeColor=none;resizable=0;perimeter=centerPerimeter;rotatable=0;allowArrows=0;points=[];outlineConnect=1;" parent="mmdkQ3DgxTQABvhwrMoQ-22" vertex="1">
          <mxGeometry x="1140" y="256" width="10" height="10" as="geometry" />
        </mxCell>
        <mxCell id="4cuxGvbS_4BrSIJYP33n-147" value="" style="ellipse;whiteSpace=wrap;html=1;align=center;aspect=fixed;fillColor=none;strokeColor=none;resizable=0;perimeter=centerPerimeter;rotatable=0;allowArrows=0;points=[];outlineConnect=1;" parent="mmdkQ3DgxTQABvhwrMoQ-22" vertex="1">
          <mxGeometry x="464" y="580" width="10" height="10" as="geometry" />
        </mxCell>
        <mxCell id="4cuxGvbS_4BrSIJYP33n-153" value="" style="ellipse;whiteSpace=wrap;html=1;align=center;aspect=fixed;fillColor=none;strokeColor=none;resizable=0;perimeter=centerPerimeter;rotatable=0;allowArrows=0;points=[];outlineConnect=1;" parent="mmdkQ3DgxTQABvhwrMoQ-22" vertex="1">
          <mxGeometry x="960" y="291" width="10" height="10" as="geometry" />
        </mxCell>
        <mxCell id="4cuxGvbS_4BrSIJYP33n-160" value="" style="endArrow=none;html=1;rounded=0;entryX=0.5;entryY=1;entryDx=0;entryDy=0;exitX=0.5;exitY=0;exitDx=0;exitDy=0;" parent="mmdkQ3DgxTQABvhwrMoQ-22" source="hIF5-wNlFr5nMB-mbWGY-23" target="ubvg3rel_VxKxt8CuiRT-51" edge="1">
          <mxGeometry width="50" height="50" relative="1" as="geometry">
            <mxPoint x="1350" y="220" as="sourcePoint" />
            <mxPoint x="1400" y="170" as="targetPoint" />
          </mxGeometry>
        </mxCell>
        <mxCell id="ubvg3rel_VxKxt8CuiRT-2" value="" style="html=1;rounded=0;" parent="mmdkQ3DgxTQABvhwrMoQ-22" vertex="1">
          <mxGeometry x="1050" y="-10" width="20" height="20" as="geometry" />
        </mxCell>
        <mxCell id="4cuxGvbS_4BrSIJYP33n-171" value="" style="ellipse;whiteSpace=wrap;html=1;align=center;aspect=fixed;fillColor=none;strokeColor=none;resizable=0;perimeter=centerPerimeter;rotatable=0;allowArrows=0;points=[];outlineConnect=1;" parent="mmdkQ3DgxTQABvhwrMoQ-22" vertex="1">
          <mxGeometry x="784" y="736" width="10" height="10" as="geometry" />
        </mxCell>
        <mxCell id="4cuxGvbS_4BrSIJYP33n-170" value="" style="rounded=0;orthogonalLoop=1;jettySize=auto;html=1;endArrow=oval;endFill=0;sketch=0;sourcePerimeterSpacing=0;targetPerimeterSpacing=0;endSize=10;exitX=1;exitY=0.5;exitDx=0;exitDy=0;" parent="mmdkQ3DgxTQABvhwrMoQ-22" source="mmdkQ3DgxTQABvhwrMoQ-4" target="4cuxGvbS_4BrSIJYP33n-171" edge="1">
          <mxGeometry relative="1" as="geometry">
            <mxPoint x="632.5" y="741" as="sourcePoint" />
          </mxGeometry>
        </mxCell>
        <mxCell id="4cuxGvbS_4BrSIJYP33n-172" value="" style="endArrow=none;html=1;rounded=0;entryX=0.5;entryY=1;entryDx=0;entryDy=0;exitX=0.75;exitY=0;exitDx=0;exitDy=0;" parent="mmdkQ3DgxTQABvhwrMoQ-22" source="mmdkQ3DgxTQABvhwrMoQ-7" target="ubvg3rel_VxKxt8CuiRT-2" edge="1">
          <mxGeometry width="50" height="50" relative="1" as="geometry">
            <mxPoint x="930" y="100" as="sourcePoint" />
            <mxPoint x="980" y="50" as="targetPoint" />
          </mxGeometry>
        </mxCell>
        <mxCell id="4cuxGvbS_4BrSIJYP33n-173" value="&amp;lt;&amp;lt;use&amp;gt;&amp;gt;" style="endArrow=open;startArrow=none;endFill=0;startFill=0;endSize=8;html=1;verticalAlign=bottom;dashed=1;labelBackgroundColor=none;rounded=0;exitX=0.5;exitY=1;exitDx=0;exitDy=0;" parent="mmdkQ3DgxTQABvhwrMoQ-22" source="mmdkQ3DgxTQABvhwrMoQ-7" edge="1">
          <mxGeometry x="-0.2626" y="2" width="160" relative="1" as="geometry">
            <mxPoint x="920" y="510" as="sourcePoint" />
            <mxPoint x="830" y="430" as="targetPoint" />
            <Array as="points" />
            <mxPoint as="offset" />
          </mxGeometry>
        </mxCell>
        <mxCell id="4cuxGvbS_4BrSIJYP33n-174" value="&amp;lt;&amp;lt;use&amp;gt;&amp;gt;" style="endArrow=open;startArrow=none;endFill=0;startFill=0;endSize=8;html=1;verticalAlign=bottom;dashed=1;labelBackgroundColor=none;rounded=0;exitX=1;exitY=1;exitDx=0;exitDy=0;exitPerimeter=0;" parent="mmdkQ3DgxTQABvhwrMoQ-22" source="mmdkQ3DgxTQABvhwrMoQ-44" edge="1">
          <mxGeometry x="-0.2626" y="2" width="160" relative="1" as="geometry">
            <mxPoint x="635.9299999999998" y="352.75" as="sourcePoint" />
            <mxPoint x="824" y="433" as="targetPoint" />
            <Array as="points" />
            <mxPoint as="offset" />
          </mxGeometry>
        </mxCell>
        <mxCell id="4cuxGvbS_4BrSIJYP33n-175" value="&amp;lt;&amp;lt;use&amp;gt;&amp;gt;" style="endArrow=open;startArrow=none;endFill=0;startFill=0;endSize=8;html=1;verticalAlign=bottom;dashed=1;labelBackgroundColor=none;rounded=0;exitX=1;exitY=0.25;exitDx=0;exitDy=0;" parent="mmdkQ3DgxTQABvhwrMoQ-22" source="mmdkQ3DgxTQABvhwrMoQ-5" edge="1">
          <mxGeometry x="-0.2626" y="2" width="160" relative="1" as="geometry">
            <mxPoint x="591" y="500" as="sourcePoint" />
            <mxPoint x="820" y="443" as="targetPoint" />
            <Array as="points" />
            <mxPoint as="offset" />
          </mxGeometry>
        </mxCell>
        <mxCell id="4cuxGvbS_4BrSIJYP33n-178" value="&amp;lt;&amp;lt;use&amp;gt;&amp;gt;" style="endArrow=open;startArrow=none;endFill=0;startFill=0;endSize=8;html=1;verticalAlign=bottom;dashed=1;labelBackgroundColor=none;rounded=0;exitX=0.13;exitY=1.008;exitDx=0;exitDy=0;exitPerimeter=0;" parent="mmdkQ3DgxTQABvhwrMoQ-22" source="hIF5-wNlFr5nMB-mbWGY-6" edge="1">
          <mxGeometry x="-0.2626" y="2" width="160" relative="1" as="geometry">
            <mxPoint x="1080" y="310" as="sourcePoint" />
            <mxPoint x="840" y="440" as="targetPoint" />
            <Array as="points" />
            <mxPoint as="offset" />
          </mxGeometry>
        </mxCell>
        <mxCell id="4cuxGvbS_4BrSIJYP33n-156" value="" style="ellipse;whiteSpace=wrap;html=1;align=center;aspect=fixed;fillColor=none;strokeColor=none;resizable=0;perimeter=centerPerimeter;rotatable=0;allowArrows=0;points=[];outlineConnect=1;" parent="mmdkQ3DgxTQABvhwrMoQ-22" vertex="1">
          <mxGeometry x="1100" y="329" width="10" height="10" as="geometry" />
        </mxCell>
        <mxCell id="4cuxGvbS_4BrSIJYP33n-154" value="" style="rounded=0;orthogonalLoop=1;jettySize=auto;html=1;endArrow=halfCircle;endFill=0;endSize=6;strokeWidth=1;sketch=0;exitX=1;exitY=0.5;exitDx=0;exitDy=0;jumpStyle=arc;" parent="mmdkQ3DgxTQABvhwrMoQ-22" source="ubvg3rel_VxKxt8CuiRT-132" target="4cuxGvbS_4BrSIJYP33n-156" edge="1">
          <mxGeometry relative="1" as="geometry">
            <mxPoint x="1120" y="545" as="sourcePoint" />
          </mxGeometry>
        </mxCell>
        <mxCell id="4cuxGvbS_4BrSIJYP33n-161" value="" style="rounded=0;orthogonalLoop=1;jettySize=auto;html=1;endArrow=halfCircle;endFill=0;endSize=6;strokeWidth=1;sketch=0;exitX=0.302;exitY=1.008;exitDx=0;exitDy=0;exitPerimeter=0;" parent="mmdkQ3DgxTQABvhwrMoQ-22" source="39150e848f15840c-5" target="4cuxGvbS_4BrSIJYP33n-156" edge="1">
          <mxGeometry relative="1" as="geometry">
            <mxPoint x="1105" y="289" as="sourcePoint" />
            <mxPoint x="1100" y="354" as="targetPoint" />
          </mxGeometry>
        </mxCell>
        <mxCell id="4cuxGvbS_4BrSIJYP33n-155" value="" style="rounded=0;orthogonalLoop=1;jettySize=auto;html=1;endArrow=oval;endFill=0;sketch=0;sourcePerimeterSpacing=0;targetPerimeterSpacing=0;endSize=10;exitX=0.85;exitY=-0.012;exitDx=0;exitDy=0;exitPerimeter=0;" parent="mmdkQ3DgxTQABvhwrMoQ-22" source="mmdkQ3DgxTQABvhwrMoQ-47" target="4cuxGvbS_4BrSIJYP33n-156" edge="1">
          <mxGeometry relative="1" as="geometry">
            <mxPoint x="1105" y="610" as="sourcePoint" />
          </mxGeometry>
        </mxCell>
        <mxCell id="mmdkQ3DgxTQABvhwrMoQ-95" value="" style="html=1;rounded=0;" parent="mmdkQ3DgxTQABvhwrMoQ-22" vertex="1">
          <mxGeometry x="622.5" y="243" width="20" height="20" as="geometry" />
        </mxCell>
        <mxCell id="mmdkQ3DgxTQABvhwrMoQ-96" value="" style="endArrow=none;html=1;rounded=0;entryX=1;entryY=0.25;entryDx=0;entryDy=0;exitX=0;exitY=0.5;exitDx=0;exitDy=0;" parent="mmdkQ3DgxTQABvhwrMoQ-22" source="mmdkQ3DgxTQABvhwrMoQ-95" target="ubvg3rel_VxKxt8CuiRT-81" edge="1">
          <mxGeometry width="50" height="50" relative="1" as="geometry">
            <mxPoint x="512.5" y="280" as="sourcePoint" />
            <mxPoint x="156.50000000000006" y="250.0000000000001" as="targetPoint" />
          </mxGeometry>
        </mxCell>
        <mxCell id="hIF5-wNlFr5nMB-mbWGY-6" value="AuthService" style="shape=umlFrame;whiteSpace=wrap;html=1;pointerEvents=0;recursiveResize=0;container=1;collapsible=0;width=160;fillColor=#ffe6cc;strokeColor=#d79b00;" parent="mmdkQ3DgxTQABvhwrMoQ-22" vertex="1">
          <mxGeometry x="1020" y="189" width="410" height="111" as="geometry" />
        </mxCell>
        <mxCell id="39150e848f15840c-5" value="AuthManager" style="shape=component;align=left;spacingLeft=36;rounded=0;shadow=0;comic=0;labelBackgroundColor=none;strokeWidth=1;fontFamily=Verdana;fontSize=12;html=1;" parent="hIF5-wNlFr5nMB-mbWGY-6" vertex="1">
          <mxGeometry x="30" y="39" width="180" height="50" as="geometry" />
        </mxCell>
        <mxCell id="hIF5-wNlFr5nMB-mbWGY-13" value="UserModel" style="shape=component;align=left;spacingLeft=36;rounded=0;shadow=0;comic=0;labelBackgroundColor=none;strokeWidth=1;fontFamily=Verdana;fontSize=12;html=1;fillColor=#fff2cc;strokeColor=#d6b656;" parent="hIF5-wNlFr5nMB-mbWGY-6" vertex="1">
          <mxGeometry x="277" y="34" width="110" height="60" as="geometry" />
        </mxCell>
        <mxCell id="hIF5-wNlFr5nMB-mbWGY-14" value="" style="rounded=0;orthogonalLoop=1;jettySize=auto;html=1;endArrow=halfCircle;endFill=0;endSize=6;strokeWidth=1;sketch=0;exitX=0.998;exitY=0.534;exitDx=0;exitDy=0;exitPerimeter=0;" parent="hIF5-wNlFr5nMB-mbWGY-6" source="39150e848f15840c-5" target="hIF5-wNlFr5nMB-mbWGY-16" edge="1">
          <mxGeometry relative="1" as="geometry">
            <mxPoint x="270" y="39" as="sourcePoint" />
          </mxGeometry>
        </mxCell>
        <mxCell id="hIF5-wNlFr5nMB-mbWGY-15" value="" style="rounded=0;orthogonalLoop=1;jettySize=auto;html=1;endArrow=oval;endFill=0;sketch=0;sourcePerimeterSpacing=0;targetPerimeterSpacing=0;endSize=10;exitX=0.142;exitY=0.531;exitDx=0;exitDy=0;exitPerimeter=0;" parent="hIF5-wNlFr5nMB-mbWGY-6" source="hIF5-wNlFr5nMB-mbWGY-13" target="hIF5-wNlFr5nMB-mbWGY-16" edge="1">
          <mxGeometry relative="1" as="geometry">
            <mxPoint x="230" y="39" as="sourcePoint" />
          </mxGeometry>
        </mxCell>
        <mxCell id="hIF5-wNlFr5nMB-mbWGY-16" value="" style="ellipse;whiteSpace=wrap;html=1;align=center;aspect=fixed;fillColor=none;strokeColor=none;resizable=0;perimeter=centerPerimeter;rotatable=0;allowArrows=0;points=[];outlineConnect=1;" parent="hIF5-wNlFr5nMB-mbWGY-6" vertex="1">
          <mxGeometry x="245" y="61" width="10" height="10" as="geometry" />
        </mxCell>
        <mxCell id="hIF5-wNlFr5nMB-mbWGY-24" value="" style="html=1;rounded=0;" parent="hIF5-wNlFr5nMB-mbWGY-6" vertex="1">
          <mxGeometry x="180" y="-9" width="20" height="20" as="geometry" />
        </mxCell>
        <mxCell id="hIF5-wNlFr5nMB-mbWGY-25" value="" style="endArrow=none;html=1;rounded=0;entryX=0.5;entryY=1;entryDx=0;entryDy=0;exitX=0.75;exitY=0;exitDx=0;exitDy=0;" parent="hIF5-wNlFr5nMB-mbWGY-6" source="39150e848f15840c-5" target="hIF5-wNlFr5nMB-mbWGY-24" edge="1">
          <mxGeometry width="50" height="50" relative="1" as="geometry">
            <mxPoint x="230" y="21" as="sourcePoint" />
            <mxPoint x="190" y="21" as="targetPoint" />
          </mxGeometry>
        </mxCell>
        <mxCell id="hIF5-wNlFr5nMB-mbWGY-27" value="" style="html=1;rounded=0;" parent="hIF5-wNlFr5nMB-mbWGY-6" vertex="1">
          <mxGeometry x="-10" y="56" width="20" height="20" as="geometry" />
        </mxCell>
        <mxCell id="hIF5-wNlFr5nMB-mbWGY-28" value="" style="endArrow=none;html=1;rounded=0;entryX=0.977;entryY=0.388;entryDx=0;entryDy=0;exitX=0.09;exitY=0.498;exitDx=0;exitDy=0;exitPerimeter=0;entryPerimeter=0;" parent="hIF5-wNlFr5nMB-mbWGY-6" source="39150e848f15840c-5" target="hIF5-wNlFr5nMB-mbWGY-27" edge="1">
          <mxGeometry width="50" height="50" relative="1" as="geometry">
            <mxPoint x="-29" y="81" as="sourcePoint" />
            <mxPoint x="-69" y="81" as="targetPoint" />
          </mxGeometry>
        </mxCell>
        <mxCell id="hIF5-wNlFr5nMB-mbWGY-11" value="" style="html=1;rounded=0;" parent="mmdkQ3DgxTQABvhwrMoQ-22" vertex="1">
          <mxGeometry x="1095" y="291" width="20" height="20" as="geometry" />
        </mxCell>
        <mxCell id="hIF5-wNlFr5nMB-mbWGY-23" value="" style="html=1;rounded=0;" parent="mmdkQ3DgxTQABvhwrMoQ-22" vertex="1">
          <mxGeometry x="1290" y="180" width="20" height="20" as="geometry" />
        </mxCell>
        <mxCell id="hIF5-wNlFr5nMB-mbWGY-26" value="" style="endArrow=none;html=1;rounded=0;entryX=0.998;entryY=0.009;entryDx=0;entryDy=0;exitX=0.5;exitY=1;exitDx=0;exitDy=0;entryPerimeter=0;" parent="mmdkQ3DgxTQABvhwrMoQ-22" source="hIF5-wNlFr5nMB-mbWGY-23" target="39150e848f15840c-5" edge="1">
          <mxGeometry width="50" height="50" relative="1" as="geometry">
            <mxPoint x="1250" y="210" as="sourcePoint" />
            <mxPoint x="1210" y="210" as="targetPoint" />
          </mxGeometry>
        </mxCell>
        <mxCell id="hIF5-wNlFr5nMB-mbWGY-29" value="" style="rounded=0;orthogonalLoop=1;jettySize=auto;html=1;endArrow=oval;endFill=0;sketch=0;sourcePerimeterSpacing=0;targetPerimeterSpacing=0;endSize=10;exitX=0.5;exitY=0;exitDx=0;exitDy=0;" parent="mmdkQ3DgxTQABvhwrMoQ-22" edge="1">
          <mxGeometry relative="1" as="geometry">
            <mxPoint x="1210" y="180" as="sourcePoint" />
            <mxPoint x="1095" y="80" as="targetPoint" />
          </mxGeometry>
        </mxCell>
        <mxCell id="x6KYfn-9t4zsdUamP-vX-1" value="PushNotificationI" style="text;html=1;align=center;verticalAlign=middle;resizable=0;points=[];autosize=1;strokeColor=none;fillColor=none;" parent="mmdkQ3DgxTQABvhwrMoQ-22" vertex="1">
          <mxGeometry x="1115" y="319" width="110" height="30" as="geometry" />
        </mxCell>
        <mxCell id="x6KYfn-9t4zsdUamP-vX-11" value="Tournament2GatewayI" style="text;html=1;align=center;verticalAlign=middle;resizable=0;points=[];autosize=1;strokeColor=none;fillColor=none;" parent="mmdkQ3DgxTQABvhwrMoQ-22" vertex="1">
          <mxGeometry x="180" y="38" width="140" height="30" as="geometry" />
        </mxCell>
        <mxCell id="x6KYfn-9t4zsdUamP-vX-12" value="Tournament2EvaluationI" style="text;html=1;align=center;verticalAlign=middle;resizable=0;points=[];autosize=1;strokeColor=none;fillColor=none;" parent="mmdkQ3DgxTQABvhwrMoQ-22" vertex="1">
          <mxGeometry x="23" y="450" width="150" height="30" as="geometry" />
        </mxCell>
        <mxCell id="x6KYfn-9t4zsdUamP-vX-13" value="CreateRepositoryI" style="text;html=1;align=center;verticalAlign=middle;resizable=0;points=[];autosize=1;strokeColor=none;fillColor=none;" parent="mmdkQ3DgxTQABvhwrMoQ-22" vertex="1">
          <mxGeometry x="420" y="428" width="120" height="30" as="geometry" />
        </mxCell>
        <mxCell id="x6KYfn-9t4zsdUamP-vX-14" value="RetrieveSubmissionCodeI" style="text;html=1;align=center;verticalAlign=middle;resizable=0;points=[];autosize=1;strokeColor=none;fillColor=none;" parent="mmdkQ3DgxTQABvhwrMoQ-22" vertex="1">
          <mxGeometry x="252" y="580" width="160" height="30" as="geometry" />
        </mxCell>
        <mxCell id="x6KYfn-9t4zsdUamP-vX-16" value="Auth2GatewayI" style="text;html=1;align=center;verticalAlign=middle;resizable=0;points=[];autosize=1;strokeColor=none;fillColor=none;" parent="mmdkQ3DgxTQABvhwrMoQ-22" vertex="1">
          <mxGeometry x="1055" y="38" width="110" height="30" as="geometry" />
        </mxCell>
        <mxCell id="x6KYfn-9t4zsdUamP-vX-19" value="" style="rounded=0;orthogonalLoop=1;jettySize=auto;html=1;endArrow=oval;endFill=0;sketch=0;sourcePerimeterSpacing=0;targetPerimeterSpacing=0;endSize=10;exitX=0.5;exitY=0;exitDx=0;exitDy=0;" parent="mmdkQ3DgxTQABvhwrMoQ-22" edge="1">
          <mxGeometry relative="1" as="geometry">
            <mxPoint x="831" y="490.0000000000002" as="sourcePoint" />
            <mxPoint x="831" y="443" as="targetPoint" />
          </mxGeometry>
        </mxCell>
        <mxCell id="x6KYfn-9t4zsdUamP-vX-20" value="" style="ellipse;whiteSpace=wrap;html=1;align=center;aspect=fixed;fillColor=none;strokeColor=none;resizable=0;perimeter=centerPerimeter;rotatable=0;allowArrows=0;points=[];outlineConnect=1;" parent="mmdkQ3DgxTQABvhwrMoQ-22" vertex="1">
          <mxGeometry x="890" y="438" width="10" height="10" as="geometry" />
        </mxCell>
        <mxCell id="x6KYfn-9t4zsdUamP-vX-21" value="RegistryI" style="text;html=1;align=center;verticalAlign=middle;resizable=0;points=[];autosize=1;strokeColor=none;fillColor=none;" parent="mmdkQ3DgxTQABvhwrMoQ-22" vertex="1">
          <mxGeometry x="830" y="448" width="70" height="30" as="geometry" />
        </mxCell>
        <mxCell id="QgpUw27OPvmrAmyyEHpP-1" value="NotificationService" style="shape=component;align=left;spacingLeft=36;rounded=0;shadow=0;comic=0;labelBackgroundColor=none;strokeWidth=1;fontFamily=Verdana;fontSize=12;html=1;fillColor=#ffe6cc;strokeColor=#d79b00;" parent="mmdkQ3DgxTQABvhwrMoQ-22" vertex="1">
          <mxGeometry x="1220" y="681" width="160" height="60" as="geometry" />
        </mxCell>
        <mxCell id="mmdkQ3DgxTQABvhwrMoQ-47" value="NotificationQueue" style="shape=component;align=left;spacingLeft=36;rounded=0;shadow=0;comic=0;labelBackgroundColor=none;strokeWidth=1;fontFamily=Verdana;fontSize=12;html=1;fillColor=#e1d5e7;strokeColor=#9673a6;" parent="mmdkQ3DgxTQABvhwrMoQ-22" vertex="1">
          <mxGeometry x="960" y="681" width="170" height="60" as="geometry" />
        </mxCell>
        <mxCell id="x6KYfn-9t4zsdUamP-vX-22" value="PullNotificationI" style="text;html=1;align=center;verticalAlign=middle;resizable=0;points=[];autosize=1;strokeColor=none;fillColor=none;" parent="mmdkQ3DgxTQABvhwrMoQ-22" vertex="1">
          <mxGeometry x="1120" y="660" width="110" height="30" as="geometry" />
        </mxCell>
        <mxCell id="QgpUw27OPvmrAmyyEHpP-2" value="EvaluationService" style="shape=component;align=left;spacingLeft=36;rounded=0;shadow=0;comic=0;labelBackgroundColor=none;strokeWidth=1;fontFamily=Verdana;fontSize=12;html=1;fillColor=#ffe6cc;strokeColor=#d79b00;" parent="mmdkQ3DgxTQABvhwrMoQ-22" vertex="1">
          <mxGeometry x="251" y="711" width="150" height="60" as="geometry" />
        </mxCell>
        <mxCell id="mmdkQ3DgxTQABvhwrMoQ-4" value="SubmissionQueue" style="shape=component;align=left;spacingLeft=36;rounded=0;shadow=0;comic=0;labelBackgroundColor=none;strokeWidth=1;fontFamily=Verdana;fontSize=12;html=1;fillColor=#e1d5e7;strokeColor=#9673a6;" parent="mmdkQ3DgxTQABvhwrMoQ-22" vertex="1">
          <mxGeometry x="524" y="711" width="170" height="60" as="geometry" />
        </mxCell>
        <mxCell id="ubvg3rel_VxKxt8CuiRT-44" value="" style="rounded=0;orthogonalLoop=1;jettySize=auto;html=1;endArrow=halfCircle;endFill=0;endSize=6;strokeWidth=1;sketch=0;exitX=1;exitY=0.5;exitDx=0;exitDy=0;" parent="mmdkQ3DgxTQABvhwrMoQ-22" source="QgpUw27OPvmrAmyyEHpP-2" target="ubvg3rel_VxKxt8CuiRT-46" edge="1">
          <mxGeometry relative="1" as="geometry">
            <mxPoint x="344" y="741" as="sourcePoint" />
          </mxGeometry>
        </mxCell>
        <mxCell id="ubvg3rel_VxKxt8CuiRT-45" value="" style="rounded=0;orthogonalLoop=1;jettySize=auto;html=1;endArrow=oval;endFill=0;sketch=0;sourcePerimeterSpacing=0;targetPerimeterSpacing=0;endSize=10;exitX=0.097;exitY=0.508;exitDx=0;exitDy=0;exitPerimeter=0;" parent="mmdkQ3DgxTQABvhwrMoQ-22" source="mmdkQ3DgxTQABvhwrMoQ-4" target="ubvg3rel_VxKxt8CuiRT-46" edge="1">
          <mxGeometry relative="1" as="geometry">
            <mxPoint x="394" y="772" as="sourcePoint" />
          </mxGeometry>
        </mxCell>
        <mxCell id="ubvg3rel_VxKxt8CuiRT-46" value="" style="ellipse;whiteSpace=wrap;html=1;align=center;aspect=fixed;fillColor=none;strokeColor=none;resizable=0;perimeter=centerPerimeter;rotatable=0;allowArrows=0;points=[];outlineConnect=1;" parent="mmdkQ3DgxTQABvhwrMoQ-22" vertex="1">
          <mxGeometry x="467" y="736" width="10" height="10" as="geometry" />
        </mxCell>
        <mxCell id="x6KYfn-9t4zsdUamP-vX-23" value="PullSubmissionI" style="text;html=1;align=center;verticalAlign=middle;resizable=0;points=[];autosize=1;strokeColor=none;fillColor=none;" parent="mmdkQ3DgxTQABvhwrMoQ-22" vertex="1">
          <mxGeometry x="412" y="760" width="110" height="30" as="geometry" />
        </mxCell>
        <mxCell id="ubvg3rel_VxKxt8CuiRT-83" value="EventQueue" style="shape=component;align=left;spacingLeft=36;rounded=0;shadow=0;comic=0;labelBackgroundColor=none;strokeWidth=1;fontFamily=Verdana;fontSize=12;html=1;fillColor=#e1d5e7;strokeColor=#9673a6;movable=1;resizable=1;rotatable=1;deletable=1;editable=1;locked=0;connectable=1;" parent="mmdkQ3DgxTQABvhwrMoQ-22" vertex="1">
          <mxGeometry x="247" y="420" width="127" height="60" as="geometry" />
        </mxCell>
        <mxCell id="QgpUw27OPvmrAmyyEHpP-4" value="" style="html=1;rounded=0;" parent="mmdkQ3DgxTQABvhwrMoQ-22" vertex="1">
          <mxGeometry x="270" y="349" width="20" height="20" as="geometry" />
        </mxCell>
        <mxCell id="QgpUw27OPvmrAmyyEHpP-5" value="" style="html=1;rounded=0;" parent="mmdkQ3DgxTQABvhwrMoQ-22" vertex="1">
          <mxGeometry x="374" y="349" width="20" height="20" as="geometry" />
        </mxCell>
        <mxCell id="x6KYfn-9t4zsdUamP-vX-28" value="PullEventI" style="text;html=1;align=center;verticalAlign=middle;resizable=0;points=[];autosize=1;strokeColor=none;fillColor=none;" parent="mmdkQ3DgxTQABvhwrMoQ-22" vertex="1">
          <mxGeometry x="384" y="381" width="80" height="30" as="geometry" />
        </mxCell>
        <mxCell id="QgpUw27OPvmrAmyyEHpP-12" value="" style="rounded=0;orthogonalLoop=1;jettySize=auto;html=1;endArrow=halfCircle;endFill=0;endSize=6;strokeWidth=1;sketch=0;exitX=0.5;exitY=1;exitDx=0;exitDy=0;" parent="mmdkQ3DgxTQABvhwrMoQ-22" source="QgpUw27OPvmrAmyyEHpP-4" target="QgpUw27OPvmrAmyyEHpP-14" edge="1">
          <mxGeometry relative="1" as="geometry">
            <mxPoint x="310" y="394" as="sourcePoint" />
          </mxGeometry>
        </mxCell>
        <mxCell id="QgpUw27OPvmrAmyyEHpP-13" value="" style="rounded=0;orthogonalLoop=1;jettySize=auto;html=1;endArrow=oval;endFill=0;sketch=0;sourcePerimeterSpacing=0;targetPerimeterSpacing=0;endSize=10;" parent="mmdkQ3DgxTQABvhwrMoQ-22" target="QgpUw27OPvmrAmyyEHpP-14" edge="1">
          <mxGeometry relative="1" as="geometry">
            <mxPoint x="280" y="420" as="sourcePoint" />
          </mxGeometry>
        </mxCell>
        <mxCell id="QgpUw27OPvmrAmyyEHpP-14" value="" style="ellipse;whiteSpace=wrap;html=1;align=center;aspect=fixed;fillColor=none;strokeColor=none;resizable=0;perimeter=centerPerimeter;rotatable=0;allowArrows=0;points=[];outlineConnect=1;" parent="mmdkQ3DgxTQABvhwrMoQ-22" vertex="1">
          <mxGeometry x="275" y="389" width="10" height="10" as="geometry" />
        </mxCell>
        <mxCell id="x6KYfn-9t4zsdUamP-vX-27" value="PushEventI" style="text;html=1;align=center;verticalAlign=middle;resizable=0;points=[];autosize=1;strokeColor=none;fillColor=none;" parent="mmdkQ3DgxTQABvhwrMoQ-22" vertex="1">
          <mxGeometry x="195" y="379" width="80" height="30" as="geometry" />
        </mxCell>
        <mxCell id="QgpUw27OPvmrAmyyEHpP-15" value="" style="endArrow=none;html=1;rounded=0;entryX=0.838;entryY=1.008;entryDx=0;entryDy=0;entryPerimeter=0;exitX=0.5;exitY=0;exitDx=0;exitDy=0;" parent="mmdkQ3DgxTQABvhwrMoQ-22" source="QgpUw27OPvmrAmyyEHpP-4" target="39150e848f15840c-7" edge="1">
          <mxGeometry width="50" height="50" relative="1" as="geometry">
            <mxPoint x="230" y="320" as="sourcePoint" />
            <mxPoint x="280" y="270" as="targetPoint" />
          </mxGeometry>
        </mxCell>
        <mxCell id="QgpUw27OPvmrAmyyEHpP-16" value="" style="rounded=0;orthogonalLoop=1;jettySize=auto;html=1;endArrow=halfCircle;endFill=0;endSize=6;strokeWidth=1;sketch=0;exitX=0.5;exitY=1;exitDx=0;exitDy=0;" parent="mmdkQ3DgxTQABvhwrMoQ-22" source="QgpUw27OPvmrAmyyEHpP-5" edge="1">
          <mxGeometry relative="1" as="geometry">
            <mxPoint x="350" y="396" as="sourcePoint" />
            <mxPoint x="384" y="396" as="targetPoint" />
          </mxGeometry>
        </mxCell>
        <mxCell id="QgpUw27OPvmrAmyyEHpP-17" value="" style="rounded=0;orthogonalLoop=1;jettySize=auto;html=1;endArrow=oval;endFill=0;sketch=0;sourcePerimeterSpacing=0;targetPerimeterSpacing=0;endSize=10;exitX=0.906;exitY=0.003;exitDx=0;exitDy=0;exitPerimeter=0;" parent="mmdkQ3DgxTQABvhwrMoQ-22" source="ubvg3rel_VxKxt8CuiRT-83" edge="1">
          <mxGeometry relative="1" as="geometry">
            <mxPoint x="310" y="396" as="sourcePoint" />
            <mxPoint x="384" y="396" as="targetPoint" />
          </mxGeometry>
        </mxCell>
        <mxCell id="QgpUw27OPvmrAmyyEHpP-19" value="" style="endArrow=none;html=1;rounded=0;exitX=0.5;exitY=0;exitDx=0;exitDy=0;entryX=0.625;entryY=1.009;entryDx=0;entryDy=0;entryPerimeter=0;" parent="mmdkQ3DgxTQABvhwrMoQ-22" source="QgpUw27OPvmrAmyyEHpP-5" target="ubvg3rel_VxKxt8CuiRT-81" edge="1">
          <mxGeometry width="50" height="50" relative="1" as="geometry">
            <mxPoint x="350" y="370" as="sourcePoint" />
            <mxPoint x="384" y="320" as="targetPoint" />
          </mxGeometry>
        </mxCell>
        <mxCell id="QgpUw27OPvmrAmyyEHpP-21" value="" style="rounded=0;orthogonalLoop=1;jettySize=auto;html=1;endArrow=halfCircle;endFill=0;endSize=6;strokeWidth=1;sketch=0;exitX=0.75;exitY=0;exitDx=0;exitDy=0;" parent="mmdkQ3DgxTQABvhwrMoQ-22" source="QgpUw27OPvmrAmyyEHpP-2" target="QgpUw27OPvmrAmyyEHpP-23" edge="1">
          <mxGeometry relative="1" as="geometry">
            <mxPoint x="378" y="615" as="sourcePoint" />
          </mxGeometry>
        </mxCell>
        <mxCell id="QgpUw27OPvmrAmyyEHpP-22" value="" style="rounded=0;orthogonalLoop=1;jettySize=auto;html=1;endArrow=oval;endFill=0;sketch=0;sourcePerimeterSpacing=0;targetPerimeterSpacing=0;endSize=10;exitX=0.463;exitY=1.036;exitDx=0;exitDy=0;exitPerimeter=0;" parent="mmdkQ3DgxTQABvhwrMoQ-22" edge="1" source="mmdkQ3DgxTQABvhwrMoQ-5">
          <mxGeometry relative="1" as="geometry">
            <mxPoint x="400" y="550" as="sourcePoint" />
            <mxPoint x="400" y="615" as="targetPoint" />
          </mxGeometry>
        </mxCell>
        <mxCell id="QgpUw27OPvmrAmyyEHpP-23" value="" style="ellipse;whiteSpace=wrap;html=1;align=center;aspect=fixed;fillColor=none;strokeColor=none;resizable=0;perimeter=centerPerimeter;rotatable=0;allowArrows=0;points=[];outlineConnect=1;" parent="mmdkQ3DgxTQABvhwrMoQ-22" vertex="1">
          <mxGeometry x="394" y="610" width="10" height="10" as="geometry" />
        </mxCell>
        <mxCell id="mmdkQ3DgxTQABvhwrMoQ-62" value="" style="ellipse;whiteSpace=wrap;html=1;align=center;aspect=fixed;fillColor=none;strokeColor=none;resizable=0;perimeter=centerPerimeter;rotatable=0;allowArrows=0;points=[];outlineConnect=1;" parent="1" vertex="1">
          <mxGeometry x="963" y="-495" width="10" height="10" as="geometry" />
        </mxCell>
        <mxCell id="ubvg3rel_VxKxt8CuiRT-4" value="" style="ellipse;whiteSpace=wrap;html=1;align=center;aspect=fixed;fillColor=none;strokeColor=none;resizable=0;perimeter=centerPerimeter;rotatable=0;allowArrows=0;points=[];outlineConnect=1;" parent="1" vertex="1">
          <mxGeometry x="1300" y="-680" width="10" height="10" as="geometry" />
        </mxCell>
        <mxCell id="ubvg3rel_VxKxt8CuiRT-13" value="" style="ellipse;whiteSpace=wrap;html=1;align=center;aspect=fixed;fillColor=none;strokeColor=none;resizable=0;perimeter=centerPerimeter;rotatable=0;allowArrows=0;points=[];outlineConnect=1;" parent="1" vertex="1">
          <mxGeometry x="1245" y="601" width="10" height="10" as="geometry" />
        </mxCell>
        <mxCell id="ubvg3rel_VxKxt8CuiRT-33" value="" style="rounded=0;orthogonalLoop=1;jettySize=auto;html=1;endArrow=halfCircle;endFill=0;endSize=6;strokeWidth=1;sketch=0;exitX=0;exitY=0.5;exitDx=0;exitDy=0;" parent="1" source="ubvg3rel_VxKxt8CuiRT-24" target="ubvg3rel_VxKxt8CuiRT-35" edge="1">
          <mxGeometry relative="1" as="geometry">
            <mxPoint x="1255" y="836" as="sourcePoint" />
          </mxGeometry>
        </mxCell>
        <mxCell id="ubvg3rel_VxKxt8CuiRT-34" value="" style="rounded=0;orthogonalLoop=1;jettySize=auto;html=1;endArrow=oval;endFill=0;sketch=0;sourcePerimeterSpacing=0;targetPerimeterSpacing=0;endSize=10;exitX=1;exitY=0.5;exitDx=0;exitDy=0;" parent="1" source="ubvg3rel_VxKxt8CuiRT-144" target="ubvg3rel_VxKxt8CuiRT-35" edge="1">
          <mxGeometry relative="1" as="geometry">
            <mxPoint x="1260" y="880" as="sourcePoint" />
          </mxGeometry>
        </mxCell>
        <mxCell id="ubvg3rel_VxKxt8CuiRT-35" value="" style="ellipse;whiteSpace=wrap;html=1;align=center;aspect=fixed;fillColor=none;strokeColor=none;resizable=0;perimeter=centerPerimeter;rotatable=0;allowArrows=0;points=[];outlineConnect=1;" parent="1" vertex="1">
          <mxGeometry y="355" width="10" height="10" as="geometry" />
        </mxCell>
        <mxCell id="ubvg3rel_VxKxt8CuiRT-52" value="" style="rounded=0;orthogonalLoop=1;jettySize=auto;html=1;endArrow=oval;endFill=0;sketch=0;sourcePerimeterSpacing=0;targetPerimeterSpacing=0;endSize=10;exitX=0.5;exitY=1;exitDx=0;exitDy=0;" parent="1" source="ubvg3rel_VxKxt8CuiRT-139" target="ubvg3rel_VxKxt8CuiRT-53" edge="1">
          <mxGeometry relative="1" as="geometry">
            <mxPoint x="1165" y="-589" as="sourcePoint" />
          </mxGeometry>
        </mxCell>
        <mxCell id="ubvg3rel_VxKxt8CuiRT-53" value="" style="ellipse;whiteSpace=wrap;html=1;align=center;aspect=fixed;fillColor=none;strokeColor=none;resizable=0;perimeter=centerPerimeter;rotatable=0;allowArrows=0;points=[];outlineConnect=1;" parent="1" vertex="1">
          <mxGeometry x="1395" y="-425" width="10" height="10" as="geometry" />
        </mxCell>
        <mxCell id="ubvg3rel_VxKxt8CuiRT-55" value="" style="rounded=0;orthogonalLoop=1;jettySize=auto;html=1;endArrow=halfCircle;endFill=0;endSize=6;strokeWidth=1;sketch=0;exitX=0.5;exitY=0;exitDx=0;exitDy=0;entryX=0.32;entryY=0.9;entryDx=0;entryDy=0;entryPerimeter=0;" parent="1" source="ubvg3rel_VxKxt8CuiRT-51" target="ubvg3rel_VxKxt8CuiRT-53" edge="1">
          <mxGeometry relative="1" as="geometry">
            <mxPoint x="1400" y="660" as="sourcePoint" />
            <mxPoint x="1315" y="610" as="targetPoint" />
          </mxGeometry>
        </mxCell>
        <mxCell id="ubvg3rel_VxKxt8CuiRT-135" value="WebApplication" style="shape=component;align=left;spacingLeft=36;rounded=0;shadow=0;comic=0;labelBackgroundColor=none;strokeWidth=1;fontFamily=Verdana;fontSize=12;html=1;" parent="1" vertex="1">
          <mxGeometry x="805" y="-507" width="170" height="60" as="geometry" />
        </mxCell>
        <mxCell id="ubvg3rel_VxKxt8CuiRT-136" value="" style="rounded=0;orthogonalLoop=1;jettySize=auto;html=1;endArrow=halfCircle;endFill=0;endSize=6;strokeWidth=1;sketch=0;exitX=0.5;exitY=1;exitDx=0;exitDy=0;" parent="1" source="ubvg3rel_VxKxt8CuiRT-135" target="ubvg3rel_VxKxt8CuiRT-138" edge="1">
          <mxGeometry relative="1" as="geometry">
            <mxPoint x="1040" y="-447" as="sourcePoint" />
          </mxGeometry>
        </mxCell>
        <mxCell id="ubvg3rel_VxKxt8CuiRT-137" value="" style="rounded=0;orthogonalLoop=1;jettySize=auto;html=1;endArrow=oval;endFill=0;sketch=0;sourcePerimeterSpacing=0;targetPerimeterSpacing=0;endSize=10;exitX=0.5;exitY=0;exitDx=0;exitDy=0;" parent="1" source="mmdkQ3DgxTQABvhwrMoQ-55" target="ubvg3rel_VxKxt8CuiRT-138" edge="1">
          <mxGeometry relative="1" as="geometry">
            <mxPoint y="273" as="sourcePoint" />
          </mxGeometry>
        </mxCell>
        <mxCell id="ubvg3rel_VxKxt8CuiRT-138" value="" style="ellipse;whiteSpace=wrap;html=1;align=center;aspect=fixed;fillColor=none;strokeColor=none;resizable=0;perimeter=centerPerimeter;rotatable=0;allowArrows=0;points=[];outlineConnect=1;" parent="1" vertex="1">
          <mxGeometry x="885" y="-417" width="10" height="10" as="geometry" />
        </mxCell>
        <mxCell id="ubvg3rel_VxKxt8CuiRT-139" value="«external service»&lt;br&gt;&lt;b&gt;SSO&lt;/b&gt;" style="html=1;dropTarget=0;whiteSpace=wrap;fillColor=#f8cecc;strokeColor=#b85450;" parent="1" vertex="1">
          <mxGeometry x="1310" y="-510" width="180" height="65" as="geometry" />
        </mxCell>
        <mxCell id="ubvg3rel_VxKxt8CuiRT-140" value="" style="shape=module;jettyWidth=8;jettyHeight=4;" parent="ubvg3rel_VxKxt8CuiRT-139" vertex="1">
          <mxGeometry x="1" width="20" height="20" relative="1" as="geometry">
            <mxPoint x="-27" y="7" as="offset" />
          </mxGeometry>
        </mxCell>
        <mxCell id="ubvg3rel_VxKxt8CuiRT-141" value="«external service»&lt;br&gt;GitHubActions" style="html=1;dropTarget=0;whiteSpace=wrap;fillColor=#f8cecc;strokeColor=#b85450;" parent="1" vertex="1">
          <mxGeometry x="1040" y="-510" width="180" height="63" as="geometry" />
        </mxCell>
        <mxCell id="ubvg3rel_VxKxt8CuiRT-142" value="" style="shape=module;jettyWidth=8;jettyHeight=4;" parent="ubvg3rel_VxKxt8CuiRT-141" vertex="1">
          <mxGeometry x="1" width="20" height="20" relative="1" as="geometry">
            <mxPoint x="-27" y="7" as="offset" />
          </mxGeometry>
        </mxCell>
        <mxCell id="ubvg3rel_VxKxt8CuiRT-144" value="«external service»&lt;br&gt;StaticAnalysisService" style="html=1;dropTarget=0;whiteSpace=wrap;fillColor=#f8cecc;strokeColor=#b85450;" parent="1" vertex="1">
          <mxGeometry x="-200" y="327.5" width="160" height="65" as="geometry" />
        </mxCell>
        <mxCell id="ubvg3rel_VxKxt8CuiRT-145" value="" style="shape=module;jettyWidth=8;jettyHeight=4;" parent="ubvg3rel_VxKxt8CuiRT-144" vertex="1">
          <mxGeometry x="1" width="20" height="20" relative="1" as="geometry">
            <mxPoint x="-27" y="7" as="offset" />
          </mxGeometry>
        </mxCell>
        <mxCell id="ubvg3rel_VxKxt8CuiRT-147" value="«external service»&lt;br&gt;GitHub" style="html=1;dropTarget=0;whiteSpace=wrap;fillColor=#f8cecc;strokeColor=#b85450;" parent="1" vertex="1">
          <mxGeometry x="-200" y="107.5" width="160" height="65" as="geometry" />
        </mxCell>
        <mxCell id="ubvg3rel_VxKxt8CuiRT-148" value="" style="shape=module;jettyWidth=8;jettyHeight=4;" parent="ubvg3rel_VxKxt8CuiRT-147" vertex="1">
          <mxGeometry x="1" width="20" height="20" relative="1" as="geometry">
            <mxPoint x="-27" y="7" as="offset" />
          </mxGeometry>
        </mxCell>
        <mxCell id="ubvg3rel_VxKxt8CuiRT-150" value="" style="rounded=0;orthogonalLoop=1;jettySize=auto;html=1;endArrow=halfCircle;endFill=0;endSize=6;strokeWidth=1;sketch=0;exitX=0;exitY=0.5;exitDx=0;exitDy=0;" parent="1" source="ubvg3rel_VxKxt8CuiRT-37" target="ubvg3rel_VxKxt8CuiRT-152" edge="1">
          <mxGeometry relative="1" as="geometry">
            <mxPoint x="-215" y="15" as="sourcePoint" />
          </mxGeometry>
        </mxCell>
        <mxCell id="ubvg3rel_VxKxt8CuiRT-151" value="" style="rounded=0;orthogonalLoop=1;jettySize=auto;html=1;endArrow=oval;endFill=0;sketch=0;sourcePerimeterSpacing=0;targetPerimeterSpacing=0;endSize=10;exitX=1;exitY=0.5;exitDx=0;exitDy=0;" parent="1" source="ubvg3rel_VxKxt8CuiRT-147" target="ubvg3rel_VxKxt8CuiRT-152" edge="1">
          <mxGeometry relative="1" as="geometry">
            <mxPoint x="-255" y="15" as="sourcePoint" />
          </mxGeometry>
        </mxCell>
        <mxCell id="ubvg3rel_VxKxt8CuiRT-152" value="" style="ellipse;whiteSpace=wrap;html=1;align=center;aspect=fixed;fillColor=none;strokeColor=none;resizable=0;perimeter=centerPerimeter;rotatable=0;allowArrows=0;points=[];outlineConnect=1;" parent="1" vertex="1">
          <mxGeometry y="135" width="10" height="10" as="geometry" />
        </mxCell>
        <mxCell id="ubvg3rel_VxKxt8CuiRT-153" value="«external service»&lt;br&gt;EmailService" style="html=1;dropTarget=0;whiteSpace=wrap;fillColor=#f8cecc;strokeColor=#b85450;" parent="1" vertex="1">
          <mxGeometry x="1660" y="303" width="160" height="56" as="geometry" />
        </mxCell>
        <mxCell id="ubvg3rel_VxKxt8CuiRT-154" value="" style="shape=module;jettyWidth=8;jettyHeight=4;" parent="ubvg3rel_VxKxt8CuiRT-153" vertex="1">
          <mxGeometry x="1" width="20" height="20" relative="1" as="geometry">
            <mxPoint x="-27" y="7" as="offset" />
          </mxGeometry>
        </mxCell>
        <mxCell id="ubvg3rel_VxKxt8CuiRT-157" value="" style="ellipse;whiteSpace=wrap;html=1;align=center;aspect=fixed;fillColor=none;strokeColor=none;resizable=0;perimeter=centerPerimeter;rotatable=0;allowArrows=0;points=[];outlineConnect=1;" parent="1" vertex="1">
          <mxGeometry x="1590" y="330" width="10" height="10" as="geometry" />
        </mxCell>
        <mxCell id="4cuxGvbS_4BrSIJYP33n-8" value="" style="endArrow=none;dashed=1;html=1;rounded=0;entryX=0.092;entryY=0.53;entryDx=0;entryDy=0;entryPerimeter=0;" parent="1" source="mmdkQ3DgxTQABvhwrMoQ-8" target="ubvg3rel_VxKxt8CuiRT-135" edge="1">
          <mxGeometry width="50" height="50" relative="1" as="geometry">
            <mxPoint x="890" y="-430" as="sourcePoint" />
            <mxPoint x="940" y="-480" as="targetPoint" />
          </mxGeometry>
        </mxCell>
        <mxCell id="4cuxGvbS_4BrSIJYP33n-101" value="Data" style="shape=umlFrame;whiteSpace=wrap;html=1;pointerEvents=0;recursiveResize=0;container=1;collapsible=0;width=160;" parent="1" vertex="1">
          <mxGeometry x="1660" y="-380" width="260" height="330" as="geometry" />
        </mxCell>
        <mxCell id="mmdkQ3DgxTQABvhwrMoQ-19" value="UserDatabase" style="shape=component;align=left;spacingLeft=36;rounded=0;shadow=0;comic=0;labelBackgroundColor=none;strokeWidth=1;fontFamily=Verdana;fontSize=12;html=1;fillColor=#d5e8d4;strokeColor=#82b366;" parent="4cuxGvbS_4BrSIJYP33n-101" vertex="1">
          <mxGeometry x="50" y="230" width="170" height="60" as="geometry" />
        </mxCell>
        <mxCell id="mmdkQ3DgxTQABvhwrMoQ-20" value="TournamentDatabase" style="shape=component;align=left;spacingLeft=36;rounded=0;shadow=0;comic=0;labelBackgroundColor=none;strokeWidth=1;fontFamily=Verdana;fontSize=12;html=1;fillColor=#d5e8d4;strokeColor=#82b366;" parent="4cuxGvbS_4BrSIJYP33n-101" vertex="1">
          <mxGeometry x="50" y="141" width="170" height="60" as="geometry" />
        </mxCell>
        <mxCell id="4cuxGvbS_4BrSIJYP33n-121" value="" style="html=1;rounded=0;" parent="4cuxGvbS_4BrSIJYP33n-101" vertex="1">
          <mxGeometry x="-120" y="250" width="20" height="20" as="geometry" />
        </mxCell>
        <mxCell id="4cuxGvbS_4BrSIJYP33n-122" value="" style="html=1;rounded=0;" parent="4cuxGvbS_4BrSIJYP33n-101" vertex="1">
          <mxGeometry x="-10" y="250" width="20" height="20" as="geometry" />
        </mxCell>
        <mxCell id="4cuxGvbS_4BrSIJYP33n-123" value="" style="rounded=0;orthogonalLoop=1;jettySize=auto;html=1;endArrow=halfCircle;endFill=0;endSize=6;strokeWidth=1;sketch=0;exitX=1;exitY=0.5;exitDx=0;exitDy=0;" parent="4cuxGvbS_4BrSIJYP33n-101" source="4cuxGvbS_4BrSIJYP33n-121" target="4cuxGvbS_4BrSIJYP33n-125" edge="1">
          <mxGeometry relative="1" as="geometry">
            <mxPoint x="-50" y="315" as="sourcePoint" />
          </mxGeometry>
        </mxCell>
        <mxCell id="4cuxGvbS_4BrSIJYP33n-124" value="" style="rounded=0;orthogonalLoop=1;jettySize=auto;html=1;endArrow=oval;endFill=0;sketch=0;sourcePerimeterSpacing=0;targetPerimeterSpacing=0;endSize=10;exitX=0;exitY=0.5;exitDx=0;exitDy=0;" parent="4cuxGvbS_4BrSIJYP33n-101" source="4cuxGvbS_4BrSIJYP33n-122" target="4cuxGvbS_4BrSIJYP33n-125" edge="1">
          <mxGeometry relative="1" as="geometry">
            <mxPoint x="-90" y="315" as="sourcePoint" />
          </mxGeometry>
        </mxCell>
        <mxCell id="4cuxGvbS_4BrSIJYP33n-125" value="" style="ellipse;whiteSpace=wrap;html=1;align=center;aspect=fixed;fillColor=none;strokeColor=none;resizable=0;perimeter=centerPerimeter;rotatable=0;allowArrows=0;points=[];outlineConnect=1;" parent="4cuxGvbS_4BrSIJYP33n-101" vertex="1">
          <mxGeometry x="-60" y="255" width="10" height="10" as="geometry" />
        </mxCell>
        <mxCell id="4cuxGvbS_4BrSIJYP33n-127" value="" style="endArrow=none;html=1;rounded=0;entryX=1;entryY=0.5;entryDx=0;entryDy=0;exitX=0.099;exitY=0.5;exitDx=0;exitDy=0;exitPerimeter=0;" parent="4cuxGvbS_4BrSIJYP33n-101" source="mmdkQ3DgxTQABvhwrMoQ-19" target="4cuxGvbS_4BrSIJYP33n-122" edge="1">
          <mxGeometry width="50" height="50" relative="1" as="geometry">
            <mxPoint x="-190" y="299" as="sourcePoint" />
            <mxPoint x="-140" y="249" as="targetPoint" />
          </mxGeometry>
        </mxCell>
        <mxCell id="4cuxGvbS_4BrSIJYP33n-110" value="" style="html=1;rounded=0;" parent="1" vertex="1">
          <mxGeometry x="1540" y="-220" width="20" height="20" as="geometry" />
        </mxCell>
        <mxCell id="4cuxGvbS_4BrSIJYP33n-111" value="" style="endArrow=none;html=1;rounded=0;exitX=1;exitY=0.5;exitDx=0;exitDy=0;entryX=0;entryY=0.5;entryDx=0;entryDy=0;jumpStyle=arc;" parent="1" source="4cuxGvbS_4BrSIJYP33n-103" target="4cuxGvbS_4BrSIJYP33n-110" edge="1">
          <mxGeometry width="50" height="50" relative="1" as="geometry">
            <mxPoint x="1050" y="-170" as="sourcePoint" />
            <mxPoint x="1100" y="-220" as="targetPoint" />
          </mxGeometry>
        </mxCell>
        <mxCell id="4cuxGvbS_4BrSIJYP33n-112" value="" style="html=1;rounded=0;" parent="1" vertex="1">
          <mxGeometry x="1650" y="-220" width="20" height="20" as="geometry" />
        </mxCell>
        <mxCell id="4cuxGvbS_4BrSIJYP33n-117" value="" style="rounded=0;orthogonalLoop=1;jettySize=auto;html=1;endArrow=halfCircle;endFill=0;endSize=6;strokeWidth=1;sketch=0;exitX=1;exitY=0.5;exitDx=0;exitDy=0;" parent="1" source="4cuxGvbS_4BrSIJYP33n-110" target="4cuxGvbS_4BrSIJYP33n-119" edge="1">
          <mxGeometry relative="1" as="geometry">
            <mxPoint x="1610" y="-155" as="sourcePoint" />
          </mxGeometry>
        </mxCell>
        <mxCell id="4cuxGvbS_4BrSIJYP33n-118" value="" style="rounded=0;orthogonalLoop=1;jettySize=auto;html=1;endArrow=oval;endFill=0;sketch=0;sourcePerimeterSpacing=0;targetPerimeterSpacing=0;endSize=10;exitX=0;exitY=0.5;exitDx=0;exitDy=0;" parent="1" source="4cuxGvbS_4BrSIJYP33n-112" target="4cuxGvbS_4BrSIJYP33n-119" edge="1">
          <mxGeometry relative="1" as="geometry">
            <mxPoint x="1570" y="-155" as="sourcePoint" />
          </mxGeometry>
        </mxCell>
        <mxCell id="4cuxGvbS_4BrSIJYP33n-119" value="" style="ellipse;whiteSpace=wrap;html=1;align=center;aspect=fixed;fillColor=none;strokeColor=none;resizable=0;perimeter=centerPerimeter;rotatable=0;allowArrows=0;points=[];outlineConnect=1;" parent="1" vertex="1">
          <mxGeometry x="1600" y="-215" width="10" height="10" as="geometry" />
        </mxCell>
        <mxCell id="4cuxGvbS_4BrSIJYP33n-120" value="" style="endArrow=none;html=1;rounded=0;entryX=1;entryY=0.5;entryDx=0;entryDy=0;exitX=0.084;exitY=0.48;exitDx=0;exitDy=0;exitPerimeter=0;" parent="1" source="mmdkQ3DgxTQABvhwrMoQ-20" target="4cuxGvbS_4BrSIJYP33n-112" edge="1">
          <mxGeometry width="50" height="50" relative="1" as="geometry">
            <mxPoint x="1560" y="-130" as="sourcePoint" />
            <mxPoint x="1610" y="-180" as="targetPoint" />
          </mxGeometry>
        </mxCell>
        <mxCell id="4cuxGvbS_4BrSIJYP33n-135" value="" style="rounded=0;orthogonalLoop=1;jettySize=auto;html=1;endArrow=halfCircle;endFill=0;endSize=6;strokeWidth=1;sketch=0;exitX=0.095;exitY=0.507;exitDx=0;exitDy=0;exitPerimeter=0;" parent="1" source="mmdkQ3DgxTQABvhwrMoQ-7" target="4cuxGvbS_4BrSIJYP33n-137" edge="1">
          <mxGeometry relative="1" as="geometry">
            <mxPoint x="490" y="-195" as="sourcePoint" />
          </mxGeometry>
        </mxCell>
        <mxCell id="4cuxGvbS_4BrSIJYP33n-136" value="" style="rounded=0;orthogonalLoop=1;jettySize=auto;html=1;endArrow=oval;endFill=0;sketch=0;sourcePerimeterSpacing=0;targetPerimeterSpacing=0;endSize=10;exitX=0.5;exitY=0;exitDx=0;exitDy=0;" parent="1" source="mmdkQ3DgxTQABvhwrMoQ-69" target="4cuxGvbS_4BrSIJYP33n-137" edge="1">
          <mxGeometry relative="1" as="geometry">
            <mxPoint x="450" y="-195" as="sourcePoint" />
          </mxGeometry>
        </mxCell>
        <mxCell id="4cuxGvbS_4BrSIJYP33n-137" value="" style="ellipse;whiteSpace=wrap;html=1;align=center;aspect=fixed;fillColor=none;strokeColor=none;resizable=0;perimeter=centerPerimeter;rotatable=0;allowArrows=0;points=[];outlineConnect=1;" parent="1" vertex="1">
          <mxGeometry x="305" y="-305" width="10" height="10" as="geometry" />
        </mxCell>
        <mxCell id="ubvg3rel_VxKxt8CuiRT-37" value="" style="html=1;rounded=0;" parent="1" vertex="1">
          <mxGeometry x="50" y="130" width="20" height="20" as="geometry" />
        </mxCell>
        <mxCell id="ubvg3rel_VxKxt8CuiRT-42" value="" style="endArrow=none;html=1;rounded=0;exitX=1;exitY=0.5;exitDx=0;exitDy=0;entryX=0.072;entryY=0.498;entryDx=0;entryDy=0;edgeStyle=orthogonalEdgeStyle;entryPerimeter=0;jumpStyle=none;" parent="1" source="ubvg3rel_VxKxt8CuiRT-37" target="mmdkQ3DgxTQABvhwrMoQ-5" edge="1">
          <mxGeometry width="50" height="50" relative="1" as="geometry">
            <mxPoint x="1690" y="350" as="sourcePoint" />
            <mxPoint x="1700" y="310" as="targetPoint" />
          </mxGeometry>
        </mxCell>
        <mxCell id="4cuxGvbS_4BrSIJYP33n-142" value="" style="rounded=0;orthogonalLoop=1;jettySize=auto;html=1;endArrow=halfCircle;endFill=0;endSize=6;strokeWidth=1;sketch=0;exitX=0.5;exitY=1;exitDx=0;exitDy=0;" parent="1" source="ubvg3rel_VxKxt8CuiRT-94" target="4cuxGvbS_4BrSIJYP33n-144" edge="1">
          <mxGeometry relative="1" as="geometry">
            <mxPoint x="600" y="175" as="sourcePoint" />
          </mxGeometry>
        </mxCell>
        <mxCell id="4cuxGvbS_4BrSIJYP33n-143" value="" style="rounded=0;orthogonalLoop=1;jettySize=auto;html=1;endArrow=oval;endFill=0;sketch=0;sourcePerimeterSpacing=0;targetPerimeterSpacing=0;endSize=10;exitX=0.768;exitY=0.008;exitDx=0;exitDy=0;exitPerimeter=0;" parent="1" source="mmdkQ3DgxTQABvhwrMoQ-5" target="4cuxGvbS_4BrSIJYP33n-144" edge="1">
          <mxGeometry relative="1" as="geometry">
            <mxPoint x="560" y="175" as="sourcePoint" />
          </mxGeometry>
        </mxCell>
        <mxCell id="4cuxGvbS_4BrSIJYP33n-144" value="" style="ellipse;whiteSpace=wrap;html=1;align=center;aspect=fixed;fillColor=none;strokeColor=none;resizable=0;perimeter=centerPerimeter;rotatable=0;allowArrows=0;points=[];outlineConnect=1;" parent="1" vertex="1">
          <mxGeometry x="598.5" y="60" width="10" height="10" as="geometry" />
        </mxCell>
        <mxCell id="4cuxGvbS_4BrSIJYP33n-148" value="" style="rounded=0;orthogonalLoop=1;jettySize=auto;html=1;endArrow=halfCircle;endFill=0;endSize=6;strokeWidth=1;sketch=0;jumpStyle=arc;exitX=0.103;exitY=0.007;exitDx=0;exitDy=0;exitPerimeter=0;" parent="1" target="4cuxGvbS_4BrSIJYP33n-150" edge="1" source="QgpUw27OPvmrAmyyEHpP-2">
          <mxGeometry relative="1" as="geometry">
            <mxPoint x="243" y="330" as="sourcePoint" />
          </mxGeometry>
        </mxCell>
        <mxCell id="4cuxGvbS_4BrSIJYP33n-166" value="" style="rounded=0;orthogonalLoop=1;jettySize=auto;html=1;endArrow=halfCircle;endFill=0;endSize=6;strokeWidth=1;sketch=0;exitX=0.445;exitY=1.014;exitDx=0;exitDy=0;exitPerimeter=0;" parent="1" source="ubvg3rel_VxKxt8CuiRT-141" target="4cuxGvbS_4BrSIJYP33n-168" edge="1">
          <mxGeometry relative="1" as="geometry">
            <mxPoint x="1460" y="-535" as="sourcePoint" />
          </mxGeometry>
        </mxCell>
        <mxCell id="4cuxGvbS_4BrSIJYP33n-167" value="" style="rounded=0;orthogonalLoop=1;jettySize=auto;html=1;endArrow=oval;endFill=0;sketch=0;sourcePerimeterSpacing=0;targetPerimeterSpacing=0;endSize=10;exitX=0.5;exitY=0;exitDx=0;exitDy=0;" parent="1" source="ubvg3rel_VxKxt8CuiRT-2" target="4cuxGvbS_4BrSIJYP33n-168" edge="1">
          <mxGeometry relative="1" as="geometry">
            <mxPoint x="749.9999999999995" y="-342" as="sourcePoint" />
          </mxGeometry>
        </mxCell>
        <mxCell id="4cuxGvbS_4BrSIJYP33n-168" value="" style="ellipse;whiteSpace=wrap;html=1;align=center;aspect=fixed;fillColor=none;strokeColor=none;resizable=0;perimeter=centerPerimeter;rotatable=0;allowArrows=0;points=[];outlineConnect=1;" parent="1" vertex="1">
          <mxGeometry x="1115" y="-415" width="10" height="10" as="geometry" />
        </mxCell>
        <mxCell id="4cuxGvbS_4BrSIJYP33n-179" value="" style="rounded=0;orthogonalLoop=1;jettySize=auto;html=1;endArrow=halfCircle;endFill=0;endSize=6;strokeWidth=1;sketch=0;exitX=1;exitY=0.5;exitDx=0;exitDy=0;" parent="1" source="mmdkQ3DgxTQABvhwrMoQ-7" target="4cuxGvbS_4BrSIJYP33n-181" edge="1">
          <mxGeometry relative="1" as="geometry">
            <mxPoint x="1410" y="-155" as="sourcePoint" />
          </mxGeometry>
        </mxCell>
        <mxCell id="4cuxGvbS_4BrSIJYP33n-181" value="" style="ellipse;whiteSpace=wrap;html=1;align=center;aspect=fixed;fillColor=none;strokeColor=none;resizable=0;perimeter=centerPerimeter;rotatable=0;allowArrows=0;points=[];outlineConnect=1;" parent="1" vertex="1">
          <mxGeometry x="1150" y="-305" width="10" height="10" as="geometry" />
        </mxCell>
        <mxCell id="4cuxGvbS_4BrSIJYP33n-184" value="" style="ellipse;whiteSpace=wrap;html=1;align=center;aspect=fixed;fillColor=none;strokeColor=none;resizable=0;perimeter=centerPerimeter;rotatable=0;allowArrows=0;points=[];outlineConnect=1;" parent="1" vertex="1">
          <mxGeometry x="1000" y="-132" width="10" height="10" as="geometry" />
        </mxCell>
        <mxCell id="4cuxGvbS_4BrSIJYP33n-185" value="" style="rounded=0;orthogonalLoop=1;jettySize=auto;html=1;endArrow=halfCircle;endFill=0;endSize=6;strokeWidth=1;sketch=0;exitX=1;exitY=0.5;exitDx=0;exitDy=0;" parent="1" source="mmdkQ3DgxTQABvhwrMoQ-95" target="4cuxGvbS_4BrSIJYP33n-187" edge="1">
          <mxGeometry relative="1" as="geometry">
            <mxPoint x="1070" y="-127" as="sourcePoint" />
            <Array as="points" />
          </mxGeometry>
        </mxCell>
        <mxCell id="4cuxGvbS_4BrSIJYP33n-186" value="" style="rounded=0;orthogonalLoop=1;jettySize=auto;html=1;endArrow=oval;endFill=0;sketch=0;sourcePerimeterSpacing=0;targetPerimeterSpacing=0;endSize=10;jumpStyle=arc;" parent="1" target="4cuxGvbS_4BrSIJYP33n-187" edge="1">
          <mxGeometry relative="1" as="geometry">
            <mxPoint x="1070" y="-127" as="sourcePoint" />
          </mxGeometry>
        </mxCell>
        <mxCell id="4cuxGvbS_4BrSIJYP33n-187" value="" style="ellipse;whiteSpace=wrap;html=1;align=center;aspect=fixed;fillColor=none;strokeColor=none;resizable=0;perimeter=centerPerimeter;rotatable=0;allowArrows=0;points=[];outlineConnect=1;" parent="1" vertex="1">
          <mxGeometry x="1000" y="-132" width="10" height="10" as="geometry" />
        </mxCell>
        <mxCell id="hIF5-wNlFr5nMB-mbWGY-5" value="" style="endArrow=none;html=1;rounded=0;exitX=1;exitY=0.25;exitDx=0;exitDy=0;" parent="1" source="hIF5-wNlFr5nMB-mbWGY-1" edge="1">
          <mxGeometry width="50" height="50" relative="1" as="geometry">
            <mxPoint x="730" y="-180" as="sourcePoint" />
            <mxPoint x="680" y="-210" as="targetPoint" />
          </mxGeometry>
        </mxCell>
        <mxCell id="hIF5-wNlFr5nMB-mbWGY-17" value="" style="endArrow=none;html=1;rounded=0;entryX=0.995;entryY=0.611;entryDx=0;entryDy=0;exitX=0.02;exitY=0.572;exitDx=0;exitDy=0;entryPerimeter=0;exitPerimeter=0;" parent="1" source="hIF5-wNlFr5nMB-mbWGY-21" target="hIF5-wNlFr5nMB-mbWGY-13" edge="1">
          <mxGeometry width="50" height="50" relative="1" as="geometry">
            <mxPoint x="1527" y="-120" as="sourcePoint" />
            <mxPoint x="1470" y="-120" as="targetPoint" />
          </mxGeometry>
        </mxCell>
        <mxCell id="hIF5-wNlFr5nMB-mbWGY-22" value="" style="endArrow=none;html=1;rounded=0;entryX=0.995;entryY=0.611;entryDx=0;entryDy=0;exitX=0;exitY=0.5;exitDx=0;exitDy=0;entryPerimeter=0;" parent="1" source="4cuxGvbS_4BrSIJYP33n-121" target="hIF5-wNlFr5nMB-mbWGY-21" edge="1">
          <mxGeometry width="50" height="50" relative="1" as="geometry">
            <mxPoint x="1540" y="-120" as="sourcePoint" />
            <mxPoint x="1466" y="-120" as="targetPoint" />
          </mxGeometry>
        </mxCell>
        <mxCell id="hIF5-wNlFr5nMB-mbWGY-21" value="" style="html=1;rounded=0;" parent="1" vertex="1">
          <mxGeometry x="1480" y="-132" width="20" height="20" as="geometry" />
        </mxCell>
        <mxCell id="hIF5-wNlFr5nMB-mbWGY-30" value="&amp;lt;&amp;lt;use&amp;gt;&amp;gt;" style="endArrow=open;startArrow=none;endFill=0;startFill=0;endSize=8;html=1;verticalAlign=bottom;dashed=1;labelBackgroundColor=none;rounded=0;jumpStyle=none;exitX=1.017;exitY=-0.029;exitDx=0;exitDy=0;exitPerimeter=0;" parent="1" edge="1" source="QgpUw27OPvmrAmyyEHpP-2">
          <mxGeometry x="-0.2626" y="2" width="160" relative="1" as="geometry">
            <mxPoint x="324" y="342" as="sourcePoint" />
            <mxPoint x="880" y="76" as="targetPoint" />
            <Array as="points" />
            <mxPoint as="offset" />
          </mxGeometry>
        </mxCell>
        <mxCell id="hIF5-wNlFr5nMB-mbWGY-31" value="" style="rounded=0;orthogonalLoop=1;jettySize=auto;html=1;endArrow=halfCircle;endFill=0;endSize=6;strokeWidth=1;sketch=0;exitX=0.25;exitY=1;exitDx=0;exitDy=0;jumpStyle=arc;" parent="1" edge="1">
          <mxGeometry relative="1" as="geometry">
            <mxPoint x="848.5" y="-269" as="sourcePoint" />
            <mxPoint x="849" y="361" as="targetPoint" />
          </mxGeometry>
        </mxCell>
        <mxCell id="ubvg3rel_VxKxt8CuiRT-110" value="" style="html=1;rounded=0;" parent="1" vertex="1">
          <mxGeometry x="1540" y="321" width="20" height="20" as="geometry" />
        </mxCell>
        <mxCell id="hIF5-wNlFr5nMB-mbWGY-33" value="" style="endArrow=none;html=1;rounded=0;exitX=0;exitY=0.5;exitDx=0;exitDy=0;entryX=1;entryY=0.5;entryDx=0;entryDy=0;" parent="1" source="ubvg3rel_VxKxt8CuiRT-110" target="QgpUw27OPvmrAmyyEHpP-1" edge="1">
          <mxGeometry width="50" height="50" relative="1" as="geometry">
            <mxPoint x="1530" y="330.76" as="sourcePoint" />
            <mxPoint x="1489" y="331" as="targetPoint" />
          </mxGeometry>
        </mxCell>
        <mxCell id="hIF5-wNlFr5nMB-mbWGY-34" value="" style="rounded=0;orthogonalLoop=1;jettySize=auto;html=1;endArrow=halfCircle;endFill=0;endSize=6;strokeWidth=1;sketch=0;exitX=1;exitY=0.5;exitDx=0;exitDy=0;" parent="1" source="ubvg3rel_VxKxt8CuiRT-110" target="hIF5-wNlFr5nMB-mbWGY-36" edge="1">
          <mxGeometry relative="1" as="geometry">
            <mxPoint x="1630" y="255" as="sourcePoint" />
          </mxGeometry>
        </mxCell>
        <mxCell id="hIF5-wNlFr5nMB-mbWGY-35" value="" style="rounded=0;orthogonalLoop=1;jettySize=auto;html=1;endArrow=oval;endFill=0;sketch=0;sourcePerimeterSpacing=0;targetPerimeterSpacing=0;endSize=10;exitX=0;exitY=0.5;exitDx=0;exitDy=0;" parent="1" source="ubvg3rel_VxKxt8CuiRT-153" target="hIF5-wNlFr5nMB-mbWGY-36" edge="1">
          <mxGeometry relative="1" as="geometry">
            <mxPoint x="1590" y="255" as="sourcePoint" />
          </mxGeometry>
        </mxCell>
        <mxCell id="hIF5-wNlFr5nMB-mbWGY-36" value="" style="ellipse;whiteSpace=wrap;html=1;align=center;aspect=fixed;fillColor=none;strokeColor=none;resizable=0;perimeter=centerPerimeter;rotatable=0;allowArrows=0;points=[];outlineConnect=1;" parent="1" vertex="1">
          <mxGeometry x="1610" y="326" width="10" height="10" as="geometry" />
        </mxCell>
        <mxCell id="x6KYfn-9t4zsdUamP-vX-2" value="CommitI" style="text;html=1;align=center;verticalAlign=middle;resizable=0;points=[];autosize=1;strokeColor=none;fillColor=none;" parent="1" vertex="1">
          <mxGeometry x="1125" y="-425" width="70" height="30" as="geometry" />
        </mxCell>
        <mxCell id="x6KYfn-9t4zsdUamP-vX-3" value="SSO API" style="text;html=1;align=center;verticalAlign=middle;resizable=0;points=[];autosize=1;strokeColor=none;fillColor=none;" parent="1" vertex="1">
          <mxGeometry x="1410" y="-432" width="70" height="30" as="geometry" />
        </mxCell>
        <mxCell id="x6KYfn-9t4zsdUamP-vX-4" value="TournamentDBMS&lt;br&gt;&amp;nbsp;API" style="text;html=1;align=center;verticalAlign=middle;resizable=0;points=[];autosize=1;strokeColor=none;fillColor=none;rotation=0;" parent="1" vertex="1">
          <mxGeometry x="1545" y="-260" width="120" height="40" as="geometry" />
        </mxCell>
        <mxCell id="x6KYfn-9t4zsdUamP-vX-6" value="UserDBMS&lt;br&gt;&amp;nbsp;API" style="text;html=1;align=center;verticalAlign=middle;resizable=0;points=[];autosize=1;strokeColor=none;fillColor=none;rotation=0;" parent="1" vertex="1">
          <mxGeometry x="1565" y="-172" width="80" height="40" as="geometry" />
        </mxCell>
        <mxCell id="x6KYfn-9t4zsdUamP-vX-7" value="Email API" style="text;html=1;align=center;verticalAlign=middle;resizable=0;points=[];autosize=1;strokeColor=none;fillColor=none;rotation=0;" parent="1" vertex="1">
          <mxGeometry x="1575" y="291" width="80" height="30" as="geometry" />
        </mxCell>
        <mxCell id="x6KYfn-9t4zsdUamP-vX-8" value="StaticAnalysis&lt;br&gt;API" style="text;html=1;align=center;verticalAlign=middle;resizable=0;points=[];autosize=1;strokeColor=none;fillColor=none;rotation=0;" parent="1" vertex="1">
          <mxGeometry x="-40" y="311" width="100" height="40" as="geometry" />
        </mxCell>
        <mxCell id="x6KYfn-9t4zsdUamP-vX-9" value="GitHub&lt;br&gt;API" style="text;html=1;align=center;verticalAlign=middle;resizable=0;points=[];autosize=1;strokeColor=none;fillColor=none;rotation=0;" parent="1" vertex="1">
          <mxGeometry x="-20" y="90" width="60" height="40" as="geometry" />
        </mxCell>
        <mxCell id="x6KYfn-9t4zsdUamP-vX-10" value="APIGatewayI" style="text;html=1;align=center;verticalAlign=middle;resizable=0;points=[];autosize=1;strokeColor=none;fillColor=none;" parent="1" vertex="1">
          <mxGeometry x="790" y="-427" width="90" height="30" as="geometry" />
        </mxCell>
        <mxCell id="x6KYfn-9t4zsdUamP-vX-15" value="Auth2TournamentI" style="text;html=1;align=center;verticalAlign=middle;resizable=0;points=[];autosize=1;strokeColor=none;fillColor=none;" parent="1" vertex="1">
          <mxGeometry x="930" y="-122" width="120" height="30" as="geometry" />
        </mxCell>
        <mxCell id="x6KYfn-9t4zsdUamP-vX-24" value="PushSubmissionI" style="text;html=1;align=center;verticalAlign=middle;resizable=0;points=[];autosize=1;strokeColor=none;fillColor=none;" parent="1" vertex="1">
          <mxGeometry x="780" y="368" width="120" height="30" as="geometry" />
        </mxCell>
        <mxCell id="x6KYfn-9t4zsdUamP-vX-25" value="UserModelI" style="text;html=1;align=center;verticalAlign=middle;resizable=0;points=[];autosize=1;strokeColor=none;fillColor=none;" parent="1" vertex="1">
          <mxGeometry x="1287" y="-113" width="80" height="30" as="geometry" />
        </mxCell>
        <mxCell id="QgpUw27OPvmrAmyyEHpP-3" value="" style="rounded=0;orthogonalLoop=1;jettySize=auto;html=1;endArrow=oval;endFill=0;sketch=0;sourcePerimeterSpacing=0;targetPerimeterSpacing=0;endSize=10;exitX=0.5;exitY=1;exitDx=0;exitDy=0;" parent="1" source="mmdkQ3DgxTQABvhwrMoQ-105" target="4cuxGvbS_4BrSIJYP33n-150" edge="1">
          <mxGeometry relative="1" as="geometry">
            <mxPoint x="243" y="18" as="sourcePoint" />
            <mxPoint x="247" y="82" as="targetPoint" />
          </mxGeometry>
        </mxCell>
        <mxCell id="4cuxGvbS_4BrSIJYP33n-150" value="" style="ellipse;whiteSpace=wrap;html=1;align=center;aspect=fixed;fillColor=none;strokeColor=none;resizable=0;perimeter=centerPerimeter;rotatable=0;allowArrows=0;points=[];outlineConnect=1;" parent="1" vertex="1">
          <mxGeometry x="237.5" y="78" width="10" height="10" as="geometry" />
        </mxCell>
      </root>
    </mxGraphModel>
  </diagram>
</mxfile>
